<svg xmlns="http://www.w3.org/2000/svg" width="1024" height="500" viewBox="0 0 1024 500" role="img" aria-labelledby="t d"><title id="t">SaibaTudo Eleições 2026</title><desc id="d">Gráfico de recursos da Google Play</desc><rect width="1024" height="500" fill="#0C2340"/><path d="M0,430 L1024,250 L1024,500 L0,500Z" fill="#143A66"/><g transform="translate(700 -10) scale(0.95)" opacity="0.14"><g transform="translate(256 256) scale(1.0) translate(-251 -243)">
<circle cx="229" cy="229" r="116" fill="none" stroke="#FFFFFF" stroke-width="42"/>
<path d="M313,313 L397,397" stroke="#FFFFFF" stroke-width="48" stroke-linecap="round"/>
<path d="M181,233 L219,271 L281,193" fill="none" stroke="#FFFFFF" stroke-width="34" stroke-linecap="round" stroke-linejoin="round"/></g></g><g transform="translate(80 70) scale(0.328125)"><clipPath id="f"><rect width="512" height="512" rx="112"/></clipPath>
<g clip-path="url(#f)"><rect width="512" height="512" fill="#0C2340"/>
<path d="M0,372 L512,196 L512,512 L0,512 Z" fill="#143A66"/><g transform="translate(256 256) scale(5.5932) translate(-54 -54)">
<path fill="#FFB81C" d="M41,24h26a3,3 0 0 1 3,3v36h-32v-36a3,3 0 0 1 3,-3z"/>
<path d="M47,42.5l5.2,5.2l9.3,-10.7" fill="none" stroke="#0C2340" stroke-width="4.6" stroke-linecap="round" stroke-linejoin="round"/>
<path fill="#FFFFFF" d="M29,59a3,3 0 0 1 3,-3h44a3,3 0 0 1 3,3v22a4,4 0 0 1 -4,4h-42a4,4 0 0 1 -4,-4z"/>
<path fill="#0C2340" d="M37,58h34v3h-34z"/>
<path fill="#22C55E" d="M29,70h50v5h-50z"/></g></g><rect x="6" y="6" width="500" height="500" rx="106" fill="none" stroke="#3B6EA8" stroke-width="12"/></g><g transform="translate(278 160)"><path d="M4.03 -20.16H21.5Q21.89 -16.42 24.1 -14.45Q26.3 -12.48 29.86 -12.48Q33.5 -12.48 35.62 -14.16Q37.73 -15.84 37.73 -18.82Q37.73 -21.31 36.05 -22.94Q34.37 -24.58 31.92 -25.63Q29.47 -26.69 24.96 -28.03Q18.43 -30.05 14.3 -32.06Q10.18 -34.08 7.2 -38.02Q4.22 -41.95 4.22 -48.29Q4.22 -57.7 11.04 -63.02Q17.86 -68.35 28.8 -68.35Q39.94 -68.35 46.75 -63.02Q53.57 -57.7 54.05 -48.19H36.29Q36.1 -51.46 33.89 -53.33Q31.68 -55.2 28.22 -55.2Q25.25 -55.2 23.42 -53.62Q21.6 -52.03 21.6 -49.06Q21.6 -45.79 24.67 -43.97Q27.74 -42.14 34.27 -40.03Q40.8 -37.82 44.88 -35.81Q48.96 -33.79 51.94 -29.95Q54.91 -26.11 54.91 -20.06Q54.91 -14.3 51.98 -9.6Q49.06 -4.9 43.49 -2.11Q37.92 0.67 30.34 0.67Q22.94 0.67 17.09 -1.73Q11.23 -4.13 7.73 -8.83Q4.22 -13.54 4.03 -20.16Z M84.38 -54.34Q90.05 -54.34 94.32 -52.03Q98.59 -49.73 100.9 -45.98V-53.57H117.31V0H100.9V-7.58Q98.5 -3.84 94.22 -1.54Q89.95 0.77 84.29 0.77Q77.76 0.77 72.38 -2.64Q67.01 -6.05 63.89 -12.34Q60.77 -18.62 60.77 -26.88Q60.77 -35.14 63.89 -41.38Q67.01 -47.62 72.38 -50.98Q77.76 -54.34 84.38 -54.34ZM89.18 -40.03Q84.29 -40.03 80.88 -36.53Q77.47 -33.02 77.47 -26.88Q77.47 -20.74 80.88 -17.14Q84.29 -13.54 89.18 -13.54Q94.08 -13.54 97.49 -17.09Q100.9 -20.64 100.9 -26.78Q100.9 -32.93 97.49 -36.48Q94.08 -40.03 89.18 -40.03Z M126.72 -67.97Q126.72 -71.81 129.46 -74.35Q132.19 -76.9 136.51 -76.9Q140.74 -76.9 143.47 -74.35Q146.21 -71.81 146.21 -67.97Q146.21 -64.22 143.47 -61.68Q140.74 -59.14 136.51 -59.14Q132.19 -59.14 129.46 -61.68Q126.72 -64.22 126.72 -67.97ZM144.67 -53.57V0H128.26V-53.57Z M188.54 -54.34Q195.17 -54.34 200.54 -50.98Q205.92 -47.62 209.04 -41.38Q212.16 -35.14 212.16 -26.88Q212.16 -18.62 209.04 -12.34Q205.92 -6.05 200.54 -2.64Q195.17 0.77 188.54 0.77Q182.88 0.77 178.66 -1.49Q174.43 -3.74 172.03 -7.49V0H155.62V-71.04H172.03V-45.98Q174.34 -49.73 178.66 -52.03Q182.98 -54.34 188.54 -54.34ZM183.65 -40.03Q178.75 -40.03 175.34 -36.48Q171.94 -32.93 171.94 -26.78Q171.94 -20.64 175.34 -17.09Q178.75 -13.54 183.65 -13.54Q188.54 -13.54 192 -17.14Q195.46 -20.74 195.46 -26.88Q195.46 -33.02 192.05 -36.53Q188.64 -40.03 183.65 -40.03Z M240.19 -54.34Q245.86 -54.34 250.13 -52.03Q254.4 -49.73 256.7 -45.98V-53.57H273.12V0H256.7V-7.58Q254.3 -3.84 250.03 -1.54Q245.76 0.77 240.1 0.77Q233.57 0.77 228.19 -2.64Q222.82 -6.05 219.7 -12.34Q216.58 -18.62 216.58 -26.88Q216.58 -35.14 219.7 -41.38Q222.82 -47.62 228.19 -50.98Q233.57 -54.34 240.19 -54.34ZM244.99 -40.03Q240.1 -40.03 236.69 -36.53Q233.28 -33.02 233.28 -26.88Q233.28 -20.74 236.69 -17.14Q240.1 -13.54 244.99 -13.54Q249.89 -13.54 253.3 -17.09Q256.7 -20.64 256.7 -26.78Q256.7 -32.93 253.3 -36.48Q249.89 -40.03 244.99 -40.03Z" fill="#FFFFFF"/><path d="M329.5 -67.39V-54.24H311.65V0H295.23V-54.24H277.38V-67.39Z M389.7 -53.57V0H373.28V-7.3Q370.78 -3.74 366.51 -1.58Q362.24 0.58 357.06 0.58Q350.91 0.58 346.21 -2.16Q341.5 -4.9 338.91 -10.08Q336.32 -15.26 336.32 -22.27V-53.57H352.64V-24.48Q352.64 -19.1 355.42 -16.13Q358.21 -13.15 362.91 -13.15Q367.71 -13.15 370.5 -16.13Q373.28 -19.1 373.28 -24.48V-53.57Z M420.9 -54.34Q426.18 -54.34 430.54 -52.13Q434.91 -49.92 437.41 -46.18V-71.04H453.82V0H437.41V-7.68Q435.1 -3.84 430.83 -1.54Q426.56 0.77 420.9 0.77Q414.27 0.77 408.9 -2.64Q403.52 -6.05 400.4 -12.34Q397.28 -18.62 397.28 -26.88Q397.28 -35.14 400.4 -41.38Q403.52 -47.62 408.9 -50.98Q414.27 -54.34 420.9 -54.34ZM425.7 -40.03Q420.8 -40.03 417.39 -36.53Q413.98 -33.02 413.98 -26.88Q413.98 -20.74 417.39 -17.14Q420.8 -13.54 425.7 -13.54Q430.59 -13.54 434 -17.09Q437.41 -20.64 437.41 -26.78Q437.41 -32.93 434 -36.48Q430.59 -40.03 425.7 -40.03Z M461.5 -26.78Q461.5 -35.04 465.15 -41.33Q468.8 -47.62 475.14 -50.98Q481.47 -54.34 489.34 -54.34Q497.22 -54.34 503.55 -50.98Q509.89 -47.62 513.54 -41.33Q517.18 -35.04 517.18 -26.78Q517.18 -18.53 513.49 -12.24Q509.79 -5.95 503.41 -2.59Q497.02 0.77 489.15 0.77Q481.28 0.77 474.99 -2.59Q468.7 -5.95 465.1 -12.19Q461.5 -18.43 461.5 -26.78ZM500.48 -26.78Q500.48 -33.22 497.26 -36.67Q494.05 -40.13 489.34 -40.13Q484.54 -40.13 481.38 -36.72Q478.21 -33.31 478.21 -26.78Q478.21 -20.35 481.33 -16.9Q484.45 -13.44 489.15 -13.44Q493.86 -13.44 497.17 -16.9Q500.48 -20.35 500.48 -26.78Z" fill="#22C55E"/></g><g transform="translate(282 218)"><path d="M7.11 -19.89V-13.94H15.1V-10.17H7.11V-3.88H16.12V0H2.35V-23.77H16.12V-19.89Z M30.97 -3.77H38.79V0H26.21V-23.73H30.97Z M52.36 -19.89V-13.94H60.35V-10.17H52.36V-3.88H61.37V0H47.6V-23.77H61.37V-19.89Z M76.23 -23.73V0H71.47V-23.73Z M103.26 -7.48H108.73Q107.68 -4.22 105.11 -2.23Q102.54 -0.24 99.08 0.14V1.53Q100.95 1.53 102.22 2.48Q103.5 3.43 103.5 5.24Q103.5 7.07 102.19 8.06Q100.88 9.04 98.97 9.04H94.15V6.26H98.19Q99.01 6.26 99.43 6.02Q99.86 5.78 99.86 5.17Q99.86 4.56 99.43 4.33Q99.01 4.11 98.19 4.11H96.08V0.14Q93.06 -0.2 90.66 -1.82Q88.26 -3.43 86.9 -6.05Q85.54 -8.67 85.54 -11.9Q85.54 -15.4 87.13 -18.17Q88.71 -20.94 91.44 -22.49Q94.18 -24.04 97.58 -24.04Q101.56 -24.04 104.55 -22Q107.54 -19.96 108.73 -16.35H103.26Q102.44 -18.05 100.96 -18.9Q99.48 -19.75 97.55 -19.75Q95.47 -19.75 93.86 -18.79Q92.24 -17.82 91.34 -16.05Q90.44 -14.28 90.44 -11.9Q90.44 -9.55 91.34 -7.77Q92.24 -5.98 93.86 -5.02Q95.47 -4.05 97.55 -4.05Q99.48 -4.05 100.96 -4.91Q102.44 -5.78 103.26 -7.48Z M117.44 -11.93Q117.44 -15.4 119.07 -18.17Q120.7 -20.94 123.49 -22.51Q126.28 -24.07 129.61 -24.07Q132.97 -24.07 135.75 -22.51Q138.52 -20.94 140.13 -18.17Q141.75 -15.4 141.75 -11.93Q141.75 -8.43 140.13 -5.66Q138.52 -2.89 135.73 -1.33Q132.94 0.24 129.61 0.24Q126.28 0.24 123.49 -1.33Q120.7 -2.89 119.07 -5.66Q117.44 -8.43 117.44 -11.93ZM136.85 -11.93Q136.85 -14.31 135.93 -16.1Q135.01 -17.88 133.38 -18.84Q131.75 -19.79 129.61 -19.79Q127.47 -19.79 125.82 -18.84Q124.17 -17.88 123.25 -16.1Q122.33 -14.31 122.33 -11.93Q122.33 -9.55 123.25 -7.75Q124.17 -5.95 125.82 -4.98Q127.47 -4.01 129.61 -4.01Q131.75 -4.01 133.38 -4.98Q135.01 -5.95 135.93 -7.75Q136.85 -9.55 136.85 -11.93ZM127.7 -30.02Q128.42 -30.02 128.96 -29.8Q129.51 -29.58 130.19 -29.17Q131.21 -28.53 131.89 -28.53Q133.14 -28.53 133.35 -29.99H135.9Q135.59 -27.74 134.49 -26.64Q133.38 -25.53 131.68 -25.53Q130.97 -25.53 130.42 -25.76Q129.88 -25.98 129.2 -26.38Q128.21 -27.06 127.5 -27.06Q126.24 -27.06 126 -25.57H123.49Q123.79 -27.81 124.9 -28.92Q126 -30.02 127.7 -30.02Z M155.82 -19.89V-13.94H163.81V-10.17H155.82V-3.88H164.83V0H151.06V-23.77H164.83V-19.89Z M174.32 -6.83H179.42Q179.52 -5.37 180.46 -4.52Q181.39 -3.67 183.02 -3.67Q184.69 -3.67 185.64 -4.47Q186.59 -5.27 186.59 -6.56Q186.59 -7.62 185.95 -8.3Q185.3 -8.98 184.33 -9.37Q183.36 -9.76 181.66 -10.23Q179.35 -10.91 177.91 -11.58Q176.46 -12.24 175.42 -13.58Q174.39 -14.93 174.39 -17.17Q174.39 -19.28 175.44 -20.84Q176.49 -22.41 178.4 -23.24Q180.3 -24.07 182.75 -24.07Q186.42 -24.07 188.72 -22.29Q191.01 -20.5 191.25 -17.31H186.01Q185.95 -18.53 184.98 -19.33Q184.01 -20.13 182.41 -20.13Q181.02 -20.13 180.18 -19.41Q179.35 -18.7 179.35 -17.34Q179.35 -16.39 179.98 -15.76Q180.61 -15.13 181.54 -14.74Q182.48 -14.35 184.18 -13.84Q186.49 -13.16 187.95 -12.48Q189.41 -11.8 190.47 -10.44Q191.52 -9.08 191.52 -6.87Q191.52 -4.96 190.54 -3.33Q189.55 -1.7 187.65 -0.73Q185.74 0.24 183.12 0.24Q180.64 0.24 178.65 -0.61Q176.66 -1.46 175.51 -3.06Q174.35 -4.66 174.32 -6.83Z M216.24 -5.37Q219.5 -8.09 221.44 -9.91Q223.38 -11.73 224.67 -13.7Q225.96 -15.67 225.96 -17.58Q225.96 -19.31 225.15 -20.3Q224.33 -21.28 222.63 -21.28Q220.93 -21.28 220.01 -20.15Q219.1 -19.01 219.06 -17.03H214.44Q214.57 -21.11 216.87 -23.22Q219.16 -25.33 222.7 -25.33Q226.58 -25.33 228.65 -23.27Q230.72 -21.22 230.72 -17.85Q230.72 -15.2 229.3 -12.78Q227.87 -10.37 226.03 -8.59Q224.2 -6.8 221.24 -4.28H231.27V-0.34H214.47V-3.88Z M249.22 -25.26Q254.15 -25.26 256.27 -21.93Q258.4 -18.6 258.4 -12.72Q258.4 -6.8 256.27 -3.43Q254.15 -0.07 249.22 -0.07Q244.29 -0.07 242.16 -3.43Q240.04 -6.8 240.04 -12.72Q240.04 -18.6 242.16 -21.93Q244.29 -25.26 249.22 -25.26ZM249.22 -20.84Q247.32 -20.84 246.35 -19.75Q245.38 -18.67 245.06 -16.95Q244.73 -15.23 244.73 -12.72Q244.73 -10.13 245.04 -8.38Q245.34 -6.63 246.33 -5.56Q247.32 -4.49 249.22 -4.49Q251.12 -4.49 252.11 -5.56Q253.1 -6.63 253.4 -8.38Q253.71 -10.13 253.71 -12.72Q253.71 -15.23 253.38 -16.95Q253.06 -18.67 252.09 -19.75Q251.12 -20.84 249.22 -20.84Z M269.28 -5.37Q272.54 -8.09 274.48 -9.91Q276.42 -11.73 277.71 -13.7Q279 -15.67 279 -17.58Q279 -19.31 278.19 -20.3Q277.37 -21.28 275.67 -21.28Q273.97 -21.28 273.05 -20.15Q272.14 -19.01 272.1 -17.03H267.48Q267.61 -21.11 269.91 -23.22Q272.2 -25.33 275.74 -25.33Q279.62 -25.33 281.69 -23.27Q283.76 -21.22 283.76 -17.85Q283.76 -15.2 282.34 -12.78Q280.91 -10.37 279.07 -8.59Q277.24 -6.8 274.28 -4.28H284.31V-0.34H267.51V-3.88Z M302.36 -21.45Q300.02 -21.45 298.91 -19.57Q297.81 -17.68 297.77 -13.43Q298.59 -14.79 300.15 -15.55Q301.72 -16.32 303.55 -16.32Q305.76 -16.32 307.46 -15.37Q309.16 -14.42 310.11 -12.6Q311.07 -10.78 311.07 -8.23Q311.07 -5.81 310.1 -3.93Q309.13 -2.04 307.26 -0.99Q305.39 0.07 302.8 0.07Q299.27 0.07 297.25 -1.5Q295.22 -3.06 294.42 -5.87Q293.62 -8.67 293.62 -12.78Q293.62 -19.01 295.77 -22.19Q297.91 -25.36 302.53 -25.36Q306.1 -25.36 308.07 -23.43Q310.05 -21.49 310.35 -18.6H305.93Q305.59 -20.03 304.76 -20.74Q303.93 -21.45 302.36 -21.45ZM298.21 -8.3Q298.21 -6.29 299.35 -5.13Q300.49 -3.98 302.57 -3.98Q304.4 -3.98 305.47 -5.1Q306.54 -6.22 306.54 -8.13Q306.54 -10.1 305.51 -11.25Q304.47 -12.41 302.46 -12.41Q300.66 -12.41 299.44 -11.36Q298.21 -10.3 298.21 -8.3Z" fill="#FFB81C"/></g><g transform="translate(80 330)"><path d="M11.37 -20.42Q14.59 -20.42 17.1 -18.84Q19.6 -17.26 20.73 -14.36H16.76Q15.98 -15.95 14.59 -16.73Q13.2 -17.52 11.37 -17.52Q9.37 -17.52 7.8 -16.62Q6.24 -15.72 5.35 -14.04Q4.47 -12.35 4.47 -10.12Q4.47 -7.89 5.35 -6.21Q6.24 -4.52 7.8 -3.61Q9.37 -2.7 11.37 -2.7Q13.2 -2.7 14.59 -3.48Q15.98 -4.26 16.76 -5.86H20.73Q19.6 -2.96 17.1 -1.39Q14.59 0.17 11.37 0.17Q8.53 0.17 6.18 -1.15Q3.83 -2.47 2.45 -4.81Q1.07 -7.16 1.07 -10.12Q1.07 -13.08 2.45 -15.43Q3.83 -17.78 6.19 -19.1Q8.55 -20.42 11.37 -20.42Z M23.52 -8Q23.52 -10.44 24.59 -12.33Q25.67 -14.21 27.52 -15.23Q29.38 -16.24 31.67 -16.24Q33.96 -16.24 35.82 -15.23Q37.67 -14.21 38.74 -12.33Q39.82 -10.44 39.82 -8Q39.82 -5.57 38.72 -3.68Q37.61 -1.8 35.71 -0.77Q33.81 0.26 31.52 0.26Q29.26 0.26 27.43 -0.77Q25.61 -1.8 24.56 -3.67Q23.52 -5.54 23.52 -8ZM36.42 -8Q36.42 -9.74 35.76 -10.95Q35.09 -12.15 33.99 -12.76Q32.89 -13.37 31.61 -13.37Q30.33 -13.37 29.25 -12.76Q28.16 -12.15 27.52 -10.95Q26.88 -9.74 26.88 -8Q26.88 -5.42 28.2 -4.02Q29.52 -2.61 31.52 -2.61Q32.8 -2.61 33.92 -3.22Q35.03 -3.83 35.73 -5.05Q36.42 -6.26 36.42 -8Z M57.71 -9.43V0H54.43V-8.93Q54.43 -11.08 53.36 -12.22Q52.29 -13.37 50.43 -13.37Q48.58 -13.37 47.49 -12.22Q46.4 -11.08 46.4 -8.93V0H43.09V-15.98H46.4V-14.15Q47.21 -15.14 48.47 -15.69Q49.74 -16.24 51.16 -16.24Q53.04 -16.24 54.53 -15.46Q56.03 -14.67 56.87 -13.14Q57.71 -11.6 57.71 -9.43Z M61.05 -4.9H64.47Q64.55 -3.89 65.44 -3.2Q66.32 -2.52 67.66 -2.52Q69.05 -2.52 69.82 -3.06Q70.59 -3.6 70.59 -4.44Q70.59 -5.34 69.73 -5.77Q68.88 -6.21 67.02 -6.73Q65.22 -7.22 64.09 -7.69Q62.96 -8.15 62.13 -9.11Q61.31 -10.06 61.31 -11.63Q61.31 -12.91 62.06 -13.96Q62.81 -15.02 64.22 -15.63Q65.63 -16.24 67.45 -16.24Q70.18 -16.24 71.85 -14.86Q73.52 -13.49 73.63 -11.11H70.33Q70.24 -12.18 69.46 -12.82Q68.67 -13.46 67.34 -13.46Q66.03 -13.46 65.34 -12.96Q64.64 -12.47 64.64 -11.66Q64.64 -11.02 65.11 -10.59Q65.57 -10.15 66.24 -9.9Q66.9 -9.66 68.21 -9.28Q69.95 -8.82 71.06 -8.34Q72.18 -7.86 72.99 -6.93Q73.81 -6 73.83 -4.47Q73.83 -3.1 73.08 -2.03Q72.33 -0.96 70.95 -0.35Q69.57 0.26 67.72 0.26Q65.83 0.26 64.34 -0.42Q62.84 -1.1 61.97 -2.28Q61.1 -3.45 61.05 -4.9Z M91.87 -15.98V0H88.57V-1.89Q87.78 -0.9 86.52 -0.33Q85.26 0.23 83.84 0.23Q81.95 0.23 80.46 -0.55Q78.97 -1.33 78.11 -2.87Q77.26 -4.41 77.26 -6.58V-15.98H80.53V-7.08Q80.53 -4.93 81.61 -3.78Q82.68 -2.64 84.54 -2.64Q86.39 -2.64 87.48 -3.78Q88.57 -4.93 88.57 -7.08V-15.98Z M99.53 -21.46V0H96.22V-21.46Z M107.74 -13.28V-4.44Q107.74 -3.54 108.16 -3.15Q108.58 -2.76 109.59 -2.76H111.62V0H109.01Q106.78 0 105.59 -1.04Q104.4 -2.09 104.4 -4.44V-13.28H102.52V-15.98H104.4V-19.95H107.74V-15.98H111.62V-13.28Z M129.2 -6.76H116.99Q117.13 -4.84 118.41 -3.68Q119.68 -2.52 121.54 -2.52Q124.21 -2.52 125.31 -4.76H128.88Q128.15 -2.55 126.25 -1.15Q124.35 0.26 121.54 0.26Q119.25 0.26 117.44 -0.77Q115.62 -1.8 114.59 -3.67Q113.56 -5.54 113.56 -8Q113.56 -10.47 114.56 -12.34Q115.57 -14.21 117.38 -15.23Q119.19 -16.24 121.54 -16.24Q123.8 -16.24 125.57 -15.25Q127.34 -14.27 128.33 -12.48Q129.31 -10.7 129.31 -8.38Q129.31 -7.48 129.2 -6.76ZM125.86 -9.43Q125.83 -11.25 124.56 -12.35Q123.28 -13.46 121.39 -13.46Q119.68 -13.46 118.47 -12.37Q117.25 -11.28 117.02 -9.43Z M146.83 -16.24Q149.73 -16.24 151.63 -14.86Q153.53 -13.49 154.19 -10.93H150.63Q150.19 -12.12 149.23 -12.79Q148.28 -13.46 146.83 -13.46Q144.8 -13.46 143.59 -12.02Q142.39 -10.59 142.39 -8Q142.39 -5.42 143.59 -3.97Q144.8 -2.52 146.83 -2.52Q149.7 -2.52 150.63 -5.05H154.19Q153.5 -2.61 151.58 -1.17Q149.67 0.26 146.83 0.26Q144.54 0.26 142.77 -0.77Q141 -1.8 140 -3.67Q139 -5.54 139 -8Q139 -10.47 140 -12.34Q141 -14.21 142.77 -15.23Q144.54 -16.24 146.83 -16.24Z M163.94 -16.24Q165.82 -16.24 167.23 -15.5Q168.64 -14.76 169.48 -13.66V-15.98H172.81V0H169.48V-2.38Q168.64 -1.25 167.19 -0.49Q165.74 0.26 163.88 0.26Q161.82 0.26 160.11 -0.8Q158.4 -1.86 157.4 -3.76Q156.4 -5.66 156.4 -8.06Q156.4 -10.47 157.4 -12.33Q158.4 -14.18 160.12 -15.21Q161.85 -16.24 163.94 -16.24ZM164.63 -13.37Q163.36 -13.37 162.26 -12.75Q161.15 -12.12 160.47 -10.92Q159.79 -9.71 159.79 -8.06Q159.79 -6.41 160.47 -5.16Q161.15 -3.92 162.27 -3.26Q163.39 -2.61 164.63 -2.61Q165.91 -2.61 167.01 -3.25Q168.11 -3.89 168.79 -5.12Q169.48 -6.35 169.48 -8Q169.48 -9.66 168.79 -10.88Q168.11 -12.09 167.01 -12.73Q165.91 -13.37 164.63 -13.37Z M191.78 -9.43V0H188.5V-8.93Q188.5 -11.08 187.43 -12.22Q186.35 -13.37 184.5 -13.37Q182.64 -13.37 181.55 -12.22Q180.47 -11.08 180.47 -8.93V0H177.16V-15.98H180.47V-14.15Q181.28 -15.14 182.54 -15.69Q183.8 -16.24 185.22 -16.24Q187.11 -16.24 188.6 -15.46Q190.1 -14.67 190.94 -13.14Q191.78 -11.6 191.78 -9.43Z M202.45 -16.24Q204.02 -16.24 205.54 -15.56Q207.06 -14.88 207.96 -13.75V-21.46H211.29V0H207.96V-2.41Q207.15 -1.25 205.71 -0.49Q204.28 0.26 202.42 0.26Q200.33 0.26 198.61 -0.8Q196.88 -1.86 195.88 -3.76Q194.88 -5.66 194.88 -8.06Q194.88 -10.47 195.88 -12.33Q196.88 -14.18 198.61 -15.21Q200.33 -16.24 202.45 -16.24ZM203.12 -13.37Q201.84 -13.37 200.74 -12.75Q199.64 -12.12 198.95 -10.92Q198.27 -9.71 198.27 -8.06Q198.27 -6.41 198.95 -5.16Q199.64 -3.92 200.75 -3.26Q201.87 -2.61 203.12 -2.61Q204.39 -2.61 205.49 -3.25Q206.6 -3.89 207.28 -5.12Q207.96 -6.35 207.96 -8Q207.96 -9.66 207.28 -10.88Q206.6 -12.09 205.49 -12.73Q204.39 -13.37 203.12 -13.37Z M215.21 -20.21Q215.21 -21.11 215.82 -21.72Q216.43 -22.33 217.33 -22.33Q218.2 -22.33 218.81 -21.72Q219.41 -21.11 219.41 -20.21Q219.41 -19.31 218.81 -18.7Q218.2 -18.1 217.33 -18.1Q216.43 -18.1 215.82 -18.7Q215.21 -19.31 215.21 -20.21ZM218.95 -15.98V0H215.64V-15.98Z M229.77 -16.24Q231.33 -16.24 232.86 -15.56Q234.38 -14.88 235.28 -13.75V-21.46H238.61V0H235.28V-2.41Q234.47 -1.25 233.03 -0.49Q231.59 0.26 229.74 0.26Q227.65 0.26 225.92 -0.8Q224.2 -1.86 223.2 -3.76Q222.2 -5.66 222.2 -8.06Q222.2 -10.47 223.2 -12.33Q224.2 -14.18 225.92 -15.21Q227.65 -16.24 229.77 -16.24ZM230.43 -13.37Q229.16 -13.37 228.06 -12.75Q226.95 -12.12 226.27 -10.92Q225.59 -9.71 225.59 -8.06Q225.59 -6.41 226.27 -5.16Q226.95 -3.92 228.07 -3.26Q229.19 -2.61 230.43 -2.61Q231.71 -2.61 232.81 -3.25Q233.91 -3.89 234.6 -5.12Q235.28 -6.35 235.28 -8Q235.28 -9.66 234.6 -10.88Q233.91 -12.09 232.81 -12.73Q231.71 -13.37 230.43 -13.37Z M249.4 -16.24Q251.29 -16.24 252.69 -15.5Q254.1 -14.76 254.94 -13.66V-15.98H258.27V0H254.94V-2.38Q254.1 -1.25 252.65 -0.49Q251.2 0.26 249.34 0.26Q247.28 0.26 245.57 -0.8Q243.86 -1.86 242.86 -3.76Q241.86 -5.66 241.86 -8.06Q241.86 -10.47 242.86 -12.33Q243.86 -14.18 245.59 -15.21Q247.31 -16.24 249.4 -16.24ZM250.1 -13.37Q248.82 -13.37 247.72 -12.75Q246.62 -12.12 245.93 -10.92Q245.25 -9.71 245.25 -8.06Q245.25 -6.41 245.93 -5.16Q246.62 -3.92 247.73 -3.26Q248.85 -2.61 250.1 -2.61Q251.37 -2.61 252.47 -3.25Q253.58 -3.89 254.26 -5.12Q254.94 -6.35 254.94 -8Q254.94 -9.66 254.26 -10.88Q253.58 -12.09 252.47 -12.73Q251.37 -13.37 250.1 -13.37Z M266.48 -13.28V-4.44Q266.48 -3.54 266.9 -3.15Q267.32 -2.76 268.34 -2.76H270.37V0H267.76Q265.52 0 264.34 -1.04Q263.15 -2.09 263.15 -4.44V-13.28H261.26V-15.98H263.15V-19.95H266.48V-15.98H270.37V-13.28Z M287.88 -15.98V0H284.58V-1.89Q283.79 -0.9 282.53 -0.33Q281.27 0.23 279.85 0.23Q277.97 0.23 276.47 -0.55Q274.98 -1.33 274.12 -2.87Q273.27 -4.41 273.27 -6.58V-15.98H276.54V-7.08Q276.54 -4.93 277.62 -3.78Q278.69 -2.64 280.55 -2.64Q282.4 -2.64 283.49 -3.78Q284.58 -4.93 284.58 -7.08V-15.98Z M300.32 -16.24V-12.82H299.48Q297.54 -12.82 296.54 -11.83Q295.54 -10.85 295.54 -8.41V0H292.23V-15.98H295.54V-13.66Q296.26 -14.88 297.47 -15.56Q298.67 -16.24 300.32 -16.24Z M309.81 -16.24Q311.69 -16.24 313.1 -15.5Q314.51 -14.76 315.35 -13.66V-15.98H318.68V0H315.35V-2.38Q314.51 -1.25 313.06 -0.49Q311.61 0.26 309.75 0.26Q307.69 0.26 305.98 -0.8Q304.27 -1.86 303.27 -3.76Q302.27 -5.66 302.27 -8.06Q302.27 -10.47 303.27 -12.33Q304.27 -14.18 305.99 -15.21Q307.72 -16.24 309.81 -16.24ZM310.5 -13.37Q309.23 -13.37 308.13 -12.75Q307.02 -12.12 306.34 -10.92Q305.66 -9.71 305.66 -8.06Q305.66 -6.41 306.34 -5.16Q307.02 -3.92 308.14 -3.26Q309.26 -2.61 310.5 -2.61Q311.78 -2.61 312.88 -3.25Q313.98 -3.89 314.66 -5.12Q315.35 -6.35 315.35 -8Q315.35 -9.66 314.66 -10.88Q313.98 -12.09 312.88 -12.73Q311.78 -13.37 310.5 -13.37Z M322.16 -4.9H325.58Q325.67 -3.89 326.55 -3.2Q327.44 -2.52 328.77 -2.52Q330.17 -2.52 330.93 -3.06Q331.7 -3.6 331.7 -4.44Q331.7 -5.34 330.85 -5.77Q329.99 -6.21 328.14 -6.73Q326.34 -7.22 325.21 -7.69Q324.08 -8.15 323.25 -9.11Q322.42 -10.06 322.42 -11.63Q322.42 -12.91 323.18 -13.96Q323.93 -15.02 325.34 -15.63Q326.74 -16.24 328.57 -16.24Q331.3 -16.24 332.96 -14.86Q334.63 -13.49 334.75 -11.11H331.44Q331.35 -12.18 330.57 -12.82Q329.79 -13.46 328.45 -13.46Q327.15 -13.46 326.45 -12.96Q325.76 -12.47 325.76 -11.66Q325.76 -11.02 326.22 -10.59Q326.69 -10.15 327.35 -9.9Q328.02 -9.66 329.32 -9.28Q331.06 -8.82 332.18 -8.34Q333.3 -7.86 334.11 -6.93Q334.92 -6 334.95 -4.47Q334.95 -3.1 334.2 -2.03Q333.44 -0.96 332.06 -0.35Q330.69 0.26 328.83 0.26Q326.95 0.26 325.45 -0.42Q323.96 -1.1 323.09 -2.28Q322.22 -3.45 322.16 -4.9Z M342.14 -3.97 338.63 4.03H336.49L338.55 -3.97Z M361.46 -16.24Q363.54 -16.24 365.27 -15.21Q367 -14.18 367.98 -12.33Q368.97 -10.47 368.97 -8.06Q368.97 -5.66 367.98 -3.76Q367 -1.86 365.27 -0.8Q363.54 0.26 361.46 0.26Q359.63 0.26 358.21 -0.48Q356.79 -1.22 355.89 -2.32V7.6H352.58V-15.98H355.89V-13.63Q356.73 -14.73 358.18 -15.49Q359.63 -16.24 361.46 -16.24ZM360.73 -13.37Q359.48 -13.37 358.37 -12.73Q357.25 -12.09 356.57 -10.88Q355.89 -9.66 355.89 -8Q355.89 -6.35 356.57 -5.12Q357.25 -3.89 358.37 -3.25Q359.48 -2.61 360.73 -2.61Q362.01 -2.61 363.12 -3.26Q364.24 -3.92 364.92 -5.16Q365.6 -6.41 365.6 -8.06Q365.6 -9.71 364.92 -10.92Q364.24 -12.12 363.12 -12.75Q362.01 -13.37 360.73 -13.37Z M386.77 -6.76H374.56Q374.71 -4.84 375.99 -3.68Q377.26 -2.52 379.12 -2.52Q381.79 -2.52 382.89 -4.76H386.45Q385.73 -2.55 383.83 -1.15Q381.93 0.26 379.12 0.26Q376.83 0.26 375.01 -0.77Q373.2 -1.8 372.17 -3.67Q371.14 -5.54 371.14 -8Q371.14 -10.47 372.14 -12.34Q373.14 -14.21 374.96 -15.23Q376.77 -16.24 379.12 -16.24Q381.38 -16.24 383.15 -15.25Q384.92 -14.27 385.9 -12.48Q386.89 -10.7 386.89 -8.38Q386.89 -7.48 386.77 -6.76ZM383.44 -9.43Q383.41 -11.25 382.13 -12.35Q380.86 -13.46 378.97 -13.46Q377.26 -13.46 376.04 -12.37Q374.83 -11.28 374.59 -9.43Z M389.27 -4.9H392.69Q392.78 -3.89 393.66 -3.2Q394.55 -2.52 395.88 -2.52Q397.27 -2.52 398.04 -3.06Q398.81 -3.6 398.81 -4.44Q398.81 -5.34 397.95 -5.77Q397.1 -6.21 395.24 -6.73Q393.44 -7.22 392.31 -7.69Q391.18 -8.15 390.35 -9.11Q389.53 -10.06 389.53 -11.63Q389.53 -12.91 390.28 -13.96Q391.04 -15.02 392.44 -15.63Q393.85 -16.24 395.68 -16.24Q398.4 -16.24 400.07 -14.86Q401.74 -13.49 401.85 -11.11H398.55Q398.46 -12.18 397.68 -12.82Q396.89 -13.46 395.56 -13.46Q394.25 -13.46 393.56 -12.96Q392.86 -12.47 392.86 -11.66Q392.86 -11.02 393.33 -10.59Q393.79 -10.15 394.46 -9.9Q395.12 -9.66 396.43 -9.28Q398.17 -8.82 399.29 -8.34Q400.4 -7.86 401.21 -6.93Q402.03 -6 402.06 -4.47Q402.06 -3.1 401.3 -2.03Q400.55 -0.96 399.17 -0.35Q397.79 0.26 395.94 0.26Q394.05 0.26 392.56 -0.42Q391.06 -1.1 390.19 -2.28Q389.32 -3.45 389.27 -4.9Z M412.09 -16.24Q413.95 -16.24 415.38 -15.49Q416.82 -14.73 417.6 -13.66V-15.98H420.94V7.6H417.6V-2.32Q416.82 -1.25 415.34 -0.49Q413.86 0.26 411.97 0.26Q409.91 0.26 408.22 -0.8Q406.52 -1.86 405.52 -3.76Q404.52 -5.66 404.52 -8.06Q404.52 -10.47 405.52 -12.33Q406.52 -14.18 408.25 -15.21Q409.97 -16.24 412.09 -16.24ZM412.76 -13.37Q411.48 -13.37 410.38 -12.75Q409.28 -12.12 408.6 -10.92Q407.91 -9.71 407.91 -8.06Q407.91 -6.41 408.6 -5.16Q409.28 -3.92 410.39 -3.26Q411.51 -2.61 412.76 -2.61Q414.03 -2.61 415.13 -3.25Q416.24 -3.89 416.92 -5.12Q417.6 -6.35 417.6 -8Q417.6 -9.66 416.92 -10.88Q416.24 -12.09 415.13 -12.73Q414.03 -13.37 412.76 -13.37Z M439.76 -15.98V0H436.45V-1.89Q435.67 -0.9 434.41 -0.33Q433.14 0.23 431.72 0.23Q429.84 0.23 428.34 -0.55Q426.85 -1.33 426 -2.87Q425.14 -4.41 425.14 -6.58V-15.98H428.42V-7.08Q428.42 -4.93 429.49 -3.78Q430.56 -2.64 432.42 -2.64Q434.27 -2.64 435.36 -3.78Q436.45 -4.93 436.45 -7.08V-15.98Z M443.67 -20.21Q443.67 -21.11 444.28 -21.72Q444.89 -22.33 445.79 -22.33Q446.66 -22.33 447.27 -21.72Q447.88 -21.11 447.88 -20.21Q447.88 -19.31 447.27 -18.7Q446.66 -18.1 445.79 -18.1Q444.89 -18.1 444.28 -18.7Q443.67 -19.31 443.67 -20.21ZM447.41 -15.98V0H444.11V-15.98Z M450.89 -4.9H454.31Q454.4 -3.89 455.29 -3.2Q456.17 -2.52 457.5 -2.52Q458.9 -2.52 459.66 -3.06Q460.43 -3.6 460.43 -4.44Q460.43 -5.34 459.58 -5.77Q458.72 -6.21 456.87 -6.73Q455.07 -7.22 453.94 -7.69Q452.81 -8.15 451.98 -9.11Q451.15 -10.06 451.15 -11.63Q451.15 -12.91 451.91 -13.96Q452.66 -15.02 454.07 -15.63Q455.47 -16.24 457.3 -16.24Q460.03 -16.24 461.69 -14.86Q463.36 -13.49 463.48 -11.11H460.17Q460.08 -12.18 459.3 -12.82Q458.52 -13.46 457.19 -13.46Q455.88 -13.46 455.18 -12.96Q454.49 -12.47 454.49 -11.66Q454.49 -11.02 454.95 -10.59Q455.42 -10.15 456.08 -9.9Q456.75 -9.66 458.06 -9.28Q459.8 -8.82 460.91 -8.34Q462.03 -7.86 462.84 -6.93Q463.65 -6 463.68 -4.47Q463.68 -3.1 462.93 -2.03Q462.17 -0.96 460.8 -0.35Q459.42 0.26 457.56 0.26Q455.68 0.26 454.18 -0.42Q452.69 -1.1 451.82 -2.28Q450.95 -3.45 450.89 -4.9Z M473.69 -16.24Q475.57 -16.24 476.98 -15.5Q478.38 -14.76 479.22 -13.66V-15.98H482.56V0H479.22V-2.38Q478.38 -1.25 476.93 -0.49Q475.48 0.26 473.63 0.26Q471.57 0.26 469.86 -0.8Q468.15 -1.86 467.15 -3.76Q466.15 -5.66 466.15 -8.06Q466.15 -10.47 467.15 -12.33Q468.15 -14.18 469.87 -15.21Q471.6 -16.24 473.69 -16.24ZM474.38 -13.37Q473.11 -13.37 472 -12.75Q470.9 -12.12 470.22 -10.92Q469.54 -9.71 469.54 -8.06Q469.54 -6.41 470.22 -5.16Q470.9 -3.92 472.02 -3.26Q473.13 -2.61 474.38 -2.61Q475.66 -2.61 476.76 -3.25Q477.86 -3.89 478.54 -5.12Q479.22 -6.35 479.22 -8Q479.22 -9.66 478.54 -10.88Q477.86 -12.09 476.76 -12.73Q475.66 -13.37 474.38 -13.37Z M486.04 -4.9H489.46Q489.55 -3.89 490.43 -3.2Q491.32 -2.52 492.65 -2.52Q494.04 -2.52 494.81 -3.06Q495.58 -3.6 495.58 -4.44Q495.58 -5.34 494.73 -5.77Q493.87 -6.21 492.01 -6.73Q490.22 -7.22 489.08 -7.69Q487.95 -8.15 487.13 -9.11Q486.3 -10.06 486.3 -11.63Q486.3 -12.91 487.05 -13.96Q487.81 -15.02 489.22 -15.63Q490.62 -16.24 492.45 -16.24Q495.17 -16.24 496.84 -14.86Q498.51 -13.49 498.63 -11.11H495.32Q495.23 -12.18 494.45 -12.82Q493.67 -13.46 492.33 -13.46Q491.03 -13.46 490.33 -12.96Q489.64 -12.47 489.64 -11.66Q489.64 -11.02 490.1 -10.59Q490.56 -10.15 491.23 -9.9Q491.9 -9.66 493.2 -9.28Q494.94 -8.82 496.06 -8.34Q497.18 -7.86 497.99 -6.93Q498.8 -6 498.83 -4.47Q498.83 -3.1 498.07 -2.03Q497.32 -0.96 495.94 -0.35Q494.57 0.26 492.71 0.26Q490.82 0.26 489.33 -0.42Q487.84 -1.1 486.97 -2.28Q486.1 -3.45 486.04 -4.9Z M524.46 -6.76H512.26Q512.4 -4.84 513.68 -3.68Q514.95 -2.52 516.81 -2.52Q519.48 -2.52 520.58 -4.76H524.15Q523.42 -2.55 521.52 -1.15Q519.62 0.26 516.81 0.26Q514.52 0.26 512.71 -0.77Q510.89 -1.8 509.86 -3.67Q508.83 -5.54 508.83 -8Q508.83 -10.47 509.83 -12.34Q510.83 -14.21 512.65 -15.23Q514.46 -16.24 516.81 -16.24Q519.07 -16.24 520.84 -15.25Q522.61 -14.27 523.6 -12.48Q524.58 -10.7 524.58 -8.38Q524.58 -7.48 524.46 -6.76ZM521.13 -9.43Q521.1 -11.25 519.83 -12.35Q518.55 -13.46 516.66 -13.46Q514.95 -13.46 513.73 -12.37Q512.52 -11.28 512.28 -9.43Z M543.46 -16.24V-12.82H542.62Q540.68 -12.82 539.68 -11.83Q538.67 -10.85 538.67 -8.41V0H535.37V-15.98H538.67V-13.66Q539.4 -14.88 540.6 -15.56Q541.81 -16.24 543.46 -16.24Z M561.03 -6.76H548.82Q548.97 -4.84 550.25 -3.68Q551.52 -2.52 553.38 -2.52Q556.05 -2.52 557.15 -4.76H560.71Q559.99 -2.55 558.09 -1.15Q556.19 0.26 553.38 0.26Q551.09 0.26 549.27 -0.77Q547.46 -1.8 546.43 -3.67Q545.4 -5.54 545.4 -8Q545.4 -10.47 546.4 -12.34Q547.4 -14.21 549.22 -15.23Q551.03 -16.24 553.38 -16.24Q555.64 -16.24 557.41 -15.25Q559.18 -14.27 560.16 -12.48Q561.15 -10.7 561.15 -8.38Q561.15 -7.48 561.03 -6.76ZM557.7 -9.43Q557.67 -11.25 556.39 -12.35Q555.12 -13.46 553.23 -13.46Q551.52 -13.46 550.3 -12.37Q549.09 -11.28 548.85 -9.43Z M576.38 -13.66V-15.98H579.71V0.26Q579.71 2.47 578.78 4.19Q577.85 5.92 576.1 6.9Q574.34 7.89 571.91 7.89Q568.66 7.89 566.51 6.37Q564.37 4.84 564.08 2.23H567.36Q567.73 3.48 568.97 4.25Q570.2 5.02 571.91 5.02Q573.91 5.02 575.14 3.8Q576.38 2.58 576.38 0.26V-2.41Q575.53 -1.28 574.1 -0.51Q572.66 0.26 570.84 0.26Q568.75 0.26 567.02 -0.8Q565.3 -1.86 564.3 -3.76Q563.3 -5.66 563.3 -8.06Q563.3 -10.47 564.3 -12.33Q565.3 -14.18 567.02 -15.21Q568.75 -16.24 570.84 -16.24Q572.69 -16.24 574.13 -15.5Q575.56 -14.76 576.38 -13.66ZM571.53 -13.37Q570.26 -13.37 569.15 -12.75Q568.05 -12.12 567.37 -10.92Q566.69 -9.71 566.69 -8.06Q566.69 -6.41 567.37 -5.16Q568.05 -3.92 569.17 -3.26Q570.28 -2.61 571.53 -2.61Q572.81 -2.61 573.91 -3.25Q575.01 -3.89 575.69 -5.12Q576.38 -6.35 576.38 -8Q576.38 -9.66 575.69 -10.88Q575.01 -12.09 573.91 -12.73Q572.81 -13.37 571.53 -13.37Z M592.15 -16.24V-12.82H591.31Q589.37 -12.82 588.37 -11.83Q587.37 -10.85 587.37 -8.41V0H584.06V-15.98H587.37V-13.66Q588.09 -14.88 589.29 -15.56Q590.5 -16.24 592.15 -16.24Z M601.63 -16.24Q603.52 -16.24 604.93 -15.5Q606.33 -14.76 607.17 -13.66V-15.98H610.51V0H607.17V-2.38Q606.33 -1.25 604.88 -0.49Q603.43 0.26 601.58 0.26Q599.52 0.26 597.81 -0.8Q596.09 -1.86 595.09 -3.76Q594.09 -5.66 594.09 -8.06Q594.09 -10.47 595.09 -12.33Q596.09 -14.18 597.82 -15.21Q599.55 -16.24 601.63 -16.24ZM602.33 -13.37Q601.05 -13.37 599.95 -12.75Q598.85 -12.12 598.17 -10.92Q597.49 -9.71 597.49 -8.06Q597.49 -6.41 598.17 -5.16Q598.85 -3.92 599.97 -3.26Q601.08 -2.61 602.33 -2.61Q603.61 -2.61 604.71 -3.25Q605.81 -3.89 606.49 -5.12Q607.17 -6.35 607.17 -8Q607.17 -9.66 606.49 -10.88Q605.81 -12.09 604.71 -12.73Q603.61 -13.37 602.33 -13.37Z M613.99 -4.9H617.41Q617.5 -3.89 618.38 -3.2Q619.27 -2.52 620.6 -2.52Q621.99 -2.52 622.76 -3.06Q623.53 -3.6 623.53 -4.44Q623.53 -5.34 622.67 -5.77Q621.82 -6.21 619.96 -6.73Q618.16 -7.22 617.03 -7.69Q615.9 -8.15 615.08 -9.11Q614.25 -10.06 614.25 -11.63Q614.25 -12.91 615 -13.96Q615.76 -15.02 617.16 -15.63Q618.57 -16.24 620.4 -16.24Q623.12 -16.24 624.79 -14.86Q626.46 -13.49 626.57 -11.11H623.27Q623.18 -12.18 622.4 -12.82Q621.62 -13.46 620.28 -13.46Q618.98 -13.46 618.28 -12.96Q617.58 -12.47 617.58 -11.66Q617.58 -11.02 618.05 -10.59Q618.51 -10.15 619.18 -9.9Q619.85 -9.66 621.15 -9.28Q622.89 -8.82 624.01 -8.34Q625.12 -7.86 625.94 -6.93Q626.75 -6 626.78 -4.47Q626.78 -3.1 626.02 -2.03Q625.27 -0.96 623.89 -0.35Q622.51 0.26 620.66 0.26Q618.77 0.26 617.28 -0.42Q615.79 -1.1 614.92 -2.28Q614.05 -3.45 613.99 -4.9Z" fill="#E2E8F0"/></g><g transform="translate(80 372)"><path d="M8.9 -16.24Q11.8 -16.24 13.7 -14.86Q15.6 -13.49 16.27 -10.93H12.7Q12.27 -12.12 11.31 -12.79Q10.35 -13.46 8.9 -13.46Q6.87 -13.46 5.67 -12.02Q4.47 -10.59 4.47 -8Q4.47 -5.42 5.67 -3.97Q6.87 -2.52 8.9 -2.52Q11.77 -2.52 12.7 -5.05H16.27Q15.57 -2.61 13.66 -1.17Q11.75 0.26 8.9 0.26Q6.61 0.26 4.84 -0.77Q3.07 -1.8 2.07 -3.67Q1.07 -5.54 1.07 -8Q1.07 -10.47 2.07 -12.34Q3.07 -14.21 4.84 -15.23Q6.61 -16.24 8.9 -16.24Z M18.5 -8Q18.5 -10.44 19.58 -12.33Q20.65 -14.21 22.5 -15.23Q24.36 -16.24 26.65 -16.24Q28.94 -16.24 30.8 -15.23Q32.65 -14.21 33.73 -12.33Q34.8 -10.44 34.8 -8Q34.8 -5.57 33.7 -3.68Q32.6 -1.8 30.7 -0.77Q28.8 0.26 26.51 0.26Q24.24 0.26 22.42 -0.77Q20.59 -1.8 19.55 -3.67Q18.5 -5.54 18.5 -8ZM31.41 -8Q31.41 -9.74 30.74 -10.95Q30.07 -12.15 28.97 -12.76Q27.87 -13.37 26.59 -13.37Q25.32 -13.37 24.23 -12.76Q23.14 -12.15 22.5 -10.95Q21.87 -9.74 21.87 -8Q21.87 -5.42 23.19 -4.02Q24.51 -2.61 26.51 -2.61Q27.78 -2.61 28.9 -3.22Q30.02 -3.83 30.71 -5.05Q31.41 -6.26 31.41 -8Z M64 -9.43V0H60.73V-8.93Q60.73 -11.08 59.65 -12.22Q58.58 -13.37 56.72 -13.37Q54.87 -13.37 53.78 -12.22Q52.69 -11.08 52.69 -8.93V0H49.42V-8.93Q49.42 -11.08 48.34 -12.22Q47.27 -13.37 45.41 -13.37Q43.56 -13.37 42.47 -12.22Q41.38 -11.08 41.38 -8.93V0H38.08V-15.98H41.38V-14.15Q42.2 -15.14 43.44 -15.69Q44.69 -16.24 46.11 -16.24Q48.02 -16.24 49.53 -15.43Q51.04 -14.62 51.85 -13.08Q52.58 -14.53 54.11 -15.38Q55.65 -16.24 57.42 -16.24Q59.31 -16.24 60.8 -15.46Q62.29 -14.67 63.15 -13.14Q64 -11.6 64 -9.43Z M82.22 -16.24Q83.78 -16.24 85.3 -15.56Q86.83 -14.88 87.73 -13.75V-21.46H91.06V0H87.73V-2.41Q86.91 -1.25 85.48 -0.49Q84.04 0.26 82.19 0.26Q80.1 0.26 78.37 -0.8Q76.65 -1.86 75.65 -3.76Q74.65 -5.66 74.65 -8.06Q74.65 -10.47 75.65 -12.33Q76.65 -14.18 78.37 -15.21Q80.1 -16.24 82.22 -16.24ZM82.88 -13.37Q81.61 -13.37 80.5 -12.75Q79.4 -12.12 78.72 -10.92Q78.04 -9.71 78.04 -8.06Q78.04 -6.41 78.72 -5.16Q79.4 -3.92 80.52 -3.26Q81.64 -2.61 82.88 -2.61Q84.16 -2.61 85.26 -3.25Q86.36 -3.89 87.04 -5.12Q87.73 -6.35 87.73 -8Q87.73 -9.66 87.04 -10.88Q86.36 -12.09 85.26 -12.73Q84.16 -13.37 82.88 -13.37Z M101.85 -16.24Q103.73 -16.24 105.14 -15.5Q106.55 -14.76 107.39 -13.66V-15.98H110.72V0H107.39V-2.38Q106.55 -1.25 105.1 -0.49Q103.65 0.26 101.79 0.26Q99.73 0.26 98.02 -0.8Q96.31 -1.86 95.31 -3.76Q94.31 -5.66 94.31 -8.06Q94.31 -10.47 95.31 -12.33Q96.31 -14.18 98.03 -15.21Q99.76 -16.24 101.85 -16.24ZM102.54 -13.37Q101.27 -13.37 100.17 -12.75Q99.06 -12.12 98.38 -10.92Q97.7 -9.71 97.7 -8.06Q97.7 -6.41 98.38 -5.16Q99.06 -3.92 100.18 -3.26Q101.3 -2.61 102.54 -2.61Q103.82 -2.61 104.92 -3.25Q106.02 -3.89 106.71 -5.12Q107.39 -6.35 107.39 -8Q107.39 -9.66 106.71 -10.88Q106.02 -12.09 104.92 -12.73Q103.82 -13.37 102.54 -13.37Z M121.54 -16.24Q123.11 -16.24 124.63 -15.56Q126.15 -14.88 127.05 -13.75V-21.46H130.38V0H127.05V-2.41Q126.24 -1.25 124.8 -0.49Q123.37 0.26 121.51 0.26Q119.42 0.26 117.7 -0.8Q115.97 -1.86 114.97 -3.76Q113.97 -5.66 113.97 -8.06Q113.97 -10.47 114.97 -12.33Q115.97 -14.18 117.7 -15.21Q119.42 -16.24 121.54 -16.24ZM122.21 -13.37Q120.93 -13.37 119.83 -12.75Q118.73 -12.12 118.04 -10.92Q117.36 -9.71 117.36 -8.06Q117.36 -6.41 118.04 -5.16Q118.73 -3.92 119.84 -3.26Q120.96 -2.61 122.21 -2.61Q123.48 -2.61 124.58 -3.25Q125.69 -3.89 126.37 -5.12Q127.05 -6.35 127.05 -8Q127.05 -9.66 126.37 -10.88Q125.69 -12.09 124.58 -12.73Q123.48 -13.37 122.21 -13.37Z M133.66 -8Q133.66 -10.44 134.73 -12.33Q135.81 -14.21 137.66 -15.23Q139.52 -16.24 141.81 -16.24Q144.1 -16.24 145.96 -15.23Q147.81 -14.21 148.89 -12.33Q149.96 -10.44 149.96 -8Q149.96 -5.57 148.86 -3.68Q147.76 -1.8 145.86 -0.77Q143.96 0.26 141.67 0.26Q139.4 0.26 137.58 -0.77Q135.75 -1.8 134.71 -3.67Q133.66 -5.54 133.66 -8ZM146.57 -8Q146.57 -9.74 145.9 -10.95Q145.23 -12.15 144.13 -12.76Q143.03 -13.37 141.75 -13.37Q140.48 -13.37 139.39 -12.76Q138.3 -12.15 137.66 -10.95Q137.03 -9.74 137.03 -8Q137.03 -5.42 138.34 -4.02Q139.66 -2.61 141.67 -2.61Q142.94 -2.61 144.06 -3.22Q145.17 -3.83 145.87 -5.05Q146.57 -6.26 146.57 -8Z M152.37 -4.9H155.79Q155.88 -3.89 156.76 -3.2Q157.64 -2.52 158.98 -2.52Q160.37 -2.52 161.14 -3.06Q161.91 -3.6 161.91 -4.44Q161.91 -5.34 161.05 -5.77Q160.2 -6.21 158.34 -6.73Q156.54 -7.22 155.41 -7.69Q154.28 -8.15 153.45 -9.11Q152.63 -10.06 152.63 -11.63Q152.63 -12.91 153.38 -13.96Q154.14 -15.02 155.54 -15.63Q156.95 -16.24 158.78 -16.24Q161.5 -16.24 163.17 -14.86Q164.84 -13.49 164.95 -11.11H161.65Q161.56 -12.18 160.78 -12.82Q159.99 -13.46 158.66 -13.46Q157.35 -13.46 156.66 -12.96Q155.96 -12.47 155.96 -11.66Q155.96 -11.02 156.43 -10.59Q156.89 -10.15 157.56 -9.9Q158.22 -9.66 159.53 -9.28Q161.27 -8.82 162.39 -8.34Q163.5 -7.86 164.31 -6.93Q165.13 -6 165.16 -4.47Q165.16 -3.1 164.4 -2.03Q163.65 -0.96 162.27 -0.35Q160.89 0.26 159.04 0.26Q157.15 0.26 155.66 -0.42Q154.16 -1.1 153.29 -2.28Q152.42 -3.45 152.37 -4.9Z M182.7 -16.24Q184.59 -16.24 185.99 -15.5Q187.4 -14.76 188.24 -13.66V-15.98H191.57V0H188.24V-2.38Q187.4 -1.25 185.95 -0.49Q184.5 0.26 182.64 0.26Q180.58 0.26 178.87 -0.8Q177.16 -1.86 176.16 -3.76Q175.16 -5.66 175.16 -8.06Q175.16 -10.47 176.16 -12.33Q177.16 -14.18 178.89 -15.21Q180.61 -16.24 182.7 -16.24ZM183.4 -13.37Q182.12 -13.37 181.02 -12.75Q179.92 -12.12 179.23 -10.92Q178.55 -9.71 178.55 -8.06Q178.55 -6.41 179.23 -5.16Q179.92 -3.92 181.03 -3.26Q182.15 -2.61 183.4 -2.61Q184.67 -2.61 185.77 -3.25Q186.88 -3.89 187.56 -5.12Q188.24 -6.35 188.24 -8Q188.24 -9.66 187.56 -10.88Q186.88 -12.09 185.77 -12.73Q184.67 -13.37 183.4 -13.37Z M204.8 -16.24Q206.92 -16.24 208.63 -15.23Q210.34 -14.21 211.32 -12.34Q212.31 -10.47 212.31 -8.06Q212.31 -5.66 211.32 -3.76Q210.34 -1.86 208.61 -0.8Q206.89 0.26 204.8 0.26Q202.94 0.26 201.51 -0.46Q200.07 -1.19 199.23 -2.32V0H195.92V-21.46H199.23V-13.6Q200.07 -14.76 201.54 -15.5Q203 -16.24 204.8 -16.24ZM204.07 -13.37Q202.83 -13.37 201.71 -12.73Q200.59 -12.09 199.91 -10.88Q199.23 -9.66 199.23 -8Q199.23 -6.35 199.91 -5.12Q200.59 -3.89 201.71 -3.25Q202.83 -2.61 204.07 -2.61Q205.35 -2.61 206.47 -3.26Q207.58 -3.92 208.26 -5.16Q208.95 -6.41 208.95 -8.06Q208.95 -9.71 208.26 -10.92Q207.58 -12.12 206.47 -12.75Q205.35 -13.37 204.07 -13.37Z M230.12 -6.76H217.91Q218.05 -4.84 219.33 -3.68Q220.6 -2.52 222.46 -2.52Q225.13 -2.52 226.23 -4.76H229.8Q229.07 -2.55 227.17 -1.15Q225.27 0.26 222.46 0.26Q220.17 0.26 218.36 -0.77Q216.54 -1.8 215.51 -3.67Q214.48 -5.54 214.48 -8Q214.48 -10.47 215.48 -12.34Q216.49 -14.21 218.3 -15.23Q220.11 -16.24 222.46 -16.24Q224.72 -16.24 226.49 -15.25Q228.26 -14.27 229.25 -12.48Q230.23 -10.7 230.23 -8.38Q230.23 -7.48 230.12 -6.76ZM226.78 -9.43Q226.75 -11.25 225.48 -12.35Q224.2 -13.46 222.31 -13.46Q220.6 -13.46 219.39 -12.37Q218.17 -11.28 217.94 -9.43Z M241.57 -16.24V-12.82H240.73Q238.79 -12.82 237.79 -11.83Q236.79 -10.85 236.79 -8.41V0H233.48V-15.98H236.79V-13.66Q237.51 -14.88 238.71 -15.56Q239.92 -16.24 241.57 -16.24Z M248.47 -13.28V-4.44Q248.47 -3.54 248.89 -3.15Q249.31 -2.76 250.33 -2.76H252.36V0H249.75Q247.52 0 246.33 -1.04Q245.14 -2.09 245.14 -4.44V-13.28H243.25V-15.98H245.14V-19.95H248.47V-15.98H252.36V-13.28Z M254.33 -8Q254.33 -10.44 255.4 -12.33Q256.48 -14.21 258.33 -15.23Q260.19 -16.24 262.48 -16.24Q264.77 -16.24 266.63 -15.23Q268.48 -14.21 269.56 -12.33Q270.63 -10.44 270.63 -8Q270.63 -5.57 269.53 -3.68Q268.42 -1.8 266.52 -0.77Q264.63 0.26 262.33 0.26Q260.07 0.26 258.25 -0.77Q256.42 -1.8 255.37 -3.67Q254.33 -5.54 254.33 -8ZM267.24 -8Q267.24 -9.74 266.57 -10.95Q265.9 -12.15 264.8 -12.76Q263.7 -13.37 262.42 -13.37Q261.15 -13.37 260.06 -12.76Q258.97 -12.15 258.33 -10.95Q257.69 -9.74 257.69 -8Q257.69 -5.42 259.01 -4.02Q260.33 -2.61 262.33 -2.61Q263.61 -2.61 264.73 -3.22Q265.84 -3.83 266.54 -5.05Q267.24 -6.26 267.24 -8Z M273.04 -4.9H276.46Q276.54 -3.89 277.43 -3.2Q278.31 -2.52 279.65 -2.52Q281.04 -2.52 281.81 -3.06Q282.58 -3.6 282.58 -4.44Q282.58 -5.34 281.72 -5.77Q280.87 -6.21 279.01 -6.73Q277.21 -7.22 276.08 -7.69Q274.95 -8.15 274.12 -9.11Q273.3 -10.06 273.3 -11.63Q273.3 -12.91 274.05 -13.96Q274.8 -15.02 276.21 -15.63Q277.62 -16.24 279.44 -16.24Q282.17 -16.24 283.84 -14.86Q285.5 -13.49 285.62 -11.11H282.31Q282.23 -12.18 281.45 -12.82Q280.66 -13.46 279.33 -13.46Q278.02 -13.46 277.33 -12.96Q276.63 -12.47 276.63 -11.66Q276.63 -11.02 277.1 -10.59Q277.56 -10.15 278.23 -9.9Q278.89 -9.66 280.2 -9.28Q281.94 -8.82 283.05 -8.34Q284.17 -7.86 284.98 -6.93Q285.8 -6 285.82 -4.47Q285.82 -3.1 285.07 -2.03Q284.32 -0.96 282.94 -0.35Q281.56 0.26 279.71 0.26Q277.82 0.26 276.33 -0.42Q274.83 -1.1 273.96 -2.28Q273.09 -3.45 273.04 -4.9Z M303.4 -16.24Q304.96 -16.24 306.49 -15.56Q308.01 -14.88 308.91 -13.75V-21.46H312.24V0H308.91V-2.41Q308.1 -1.25 306.66 -0.49Q305.23 0.26 303.37 0.26Q301.28 0.26 299.56 -0.8Q297.83 -1.86 296.83 -3.76Q295.83 -5.66 295.83 -8.06Q295.83 -10.47 296.83 -12.33Q297.83 -14.18 299.56 -15.21Q301.28 -16.24 303.4 -16.24ZM304.07 -13.37Q302.79 -13.37 301.69 -12.75Q300.59 -12.12 299.9 -10.92Q299.22 -9.71 299.22 -8.06Q299.22 -6.41 299.9 -5.16Q300.59 -3.92 301.7 -3.26Q302.82 -2.61 304.07 -2.61Q305.34 -2.61 306.44 -3.25Q307.55 -3.89 308.23 -5.12Q308.91 -6.35 308.91 -8Q308.91 -9.66 308.23 -10.88Q307.55 -12.09 306.44 -12.73Q305.34 -13.37 304.07 -13.37Z M315.52 -8Q315.52 -10.44 316.59 -12.33Q317.67 -14.21 319.52 -15.23Q321.38 -16.24 323.67 -16.24Q325.96 -16.24 327.82 -15.23Q329.67 -14.21 330.75 -12.33Q331.82 -10.44 331.82 -8Q331.82 -5.57 330.72 -3.68Q329.61 -1.8 327.71 -0.77Q325.81 0.26 323.52 0.26Q321.26 0.26 319.44 -0.77Q317.61 -1.8 316.56 -3.67Q315.52 -5.54 315.52 -8ZM328.43 -8Q328.43 -9.74 327.76 -10.95Q327.09 -12.15 325.99 -12.76Q324.89 -13.37 323.61 -13.37Q322.33 -13.37 321.25 -12.76Q320.16 -12.15 319.52 -10.95Q318.88 -9.74 318.88 -8Q318.88 -5.42 320.2 -4.02Q321.52 -2.61 323.52 -2.61Q324.8 -2.61 325.92 -3.22Q327.03 -3.83 327.73 -5.05Q328.43 -6.26 328.43 -8Z M355.66 -20.16V-17.46H350.29V0H346.99V-17.46H341.59V-20.16Z M367.08 -16.24V-12.82H366.24Q364.3 -12.82 363.3 -11.83Q362.3 -10.85 362.3 -8.41V0H358.99V-15.98H362.3V-13.66Q363.02 -14.88 364.23 -15.56Q365.43 -16.24 367.08 -16.24Z M369.69 -20.21Q369.69 -21.11 370.3 -21.72Q370.91 -22.33 371.81 -22.33Q372.68 -22.33 373.29 -21.72Q373.9 -21.11 373.9 -20.21Q373.9 -19.31 373.29 -18.7Q372.68 -18.1 371.81 -18.1Q370.91 -18.1 370.3 -18.7Q369.69 -19.31 369.69 -20.21ZM373.43 -15.98V0H370.13V-15.98Z M386.66 -16.24Q388.77 -16.24 390.49 -15.23Q392.2 -14.21 393.18 -12.34Q394.17 -10.47 394.17 -8.06Q394.17 -5.66 393.18 -3.76Q392.2 -1.86 390.47 -0.8Q388.75 0.26 386.66 0.26Q384.8 0.26 383.37 -0.46Q381.93 -1.19 381.09 -2.32V0H377.78V-21.46H381.09V-13.6Q381.93 -14.76 383.39 -15.5Q384.86 -16.24 386.66 -16.24ZM385.93 -13.37Q384.69 -13.37 383.57 -12.73Q382.45 -12.09 381.77 -10.88Q381.09 -9.66 381.09 -8Q381.09 -6.35 381.77 -5.12Q382.45 -3.89 383.57 -3.25Q384.69 -2.61 385.93 -2.61Q387.21 -2.61 388.32 -3.26Q389.44 -3.92 390.12 -5.16Q390.8 -6.41 390.8 -8.06Q390.8 -9.71 390.12 -10.92Q389.44 -12.12 388.32 -12.75Q387.21 -13.37 385.93 -13.37Z M411.92 -15.98V0H408.61V-1.89Q407.83 -0.9 406.57 -0.33Q405.3 0.23 403.88 0.23Q402 0.23 400.5 -0.55Q399.01 -1.33 398.16 -2.87Q397.3 -4.41 397.3 -6.58V-15.98H400.58V-7.08Q400.58 -4.93 401.65 -3.78Q402.72 -2.64 404.58 -2.64Q406.44 -2.64 407.52 -3.78Q408.61 -4.93 408.61 -7.08V-15.98Z M430.88 -9.43V0H427.61V-8.93Q427.61 -11.08 426.53 -12.22Q425.46 -13.37 423.6 -13.37Q421.75 -13.37 420.66 -12.22Q419.57 -11.08 419.57 -8.93V0H416.27V-15.98H419.57V-14.15Q420.38 -15.14 421.65 -15.69Q422.91 -16.24 424.33 -16.24Q426.21 -16.24 427.71 -15.46Q429.2 -14.67 430.04 -13.14Q430.88 -11.6 430.88 -9.43Z M441.53 -16.24Q443.41 -16.24 444.82 -15.5Q446.22 -14.76 447.06 -13.66V-15.98H450.4V0H447.06V-2.38Q446.22 -1.25 444.77 -0.49Q443.32 0.26 441.47 0.26Q439.41 0.26 437.7 -0.8Q435.99 -1.86 434.99 -3.76Q433.99 -5.66 433.99 -8.06Q433.99 -10.47 434.99 -12.33Q435.99 -14.18 437.71 -15.21Q439.44 -16.24 441.53 -16.24ZM442.22 -13.37Q440.95 -13.37 439.84 -12.75Q438.74 -12.12 438.06 -10.92Q437.38 -9.71 437.38 -8.06Q437.38 -6.41 438.06 -5.16Q438.74 -3.92 439.86 -3.26Q440.97 -2.61 442.22 -2.61Q443.5 -2.61 444.6 -3.25Q445.7 -3.89 446.38 -5.12Q447.06 -6.35 447.06 -8Q447.06 -9.66 446.38 -10.88Q445.7 -12.09 444.6 -12.73Q443.5 -13.37 442.22 -13.37Z M458.06 -21.46V0H454.75V-21.46Z M469.45 -5.57H472.99Q473.11 -4.26 474.02 -3.42Q474.93 -2.58 476.59 -2.58Q478.3 -2.58 479.25 -3.41Q480.21 -4.23 480.21 -5.54Q480.21 -6.55 479.62 -7.19Q479.02 -7.83 478.14 -8.18Q477.25 -8.53 475.69 -8.93Q473.72 -9.45 472.48 -9.99Q471.25 -10.53 470.38 -11.66Q469.51 -12.79 469.51 -14.67Q469.51 -16.41 470.38 -17.72Q471.25 -19.02 472.82 -19.72Q474.38 -20.42 476.44 -20.42Q479.37 -20.42 481.24 -18.95Q483.11 -17.49 483.31 -14.94H479.66Q479.57 -16.04 478.62 -16.82Q477.66 -17.6 476.09 -17.6Q474.67 -17.6 473.77 -16.88Q472.87 -16.15 472.87 -14.79Q472.87 -13.86 473.44 -13.27Q474.01 -12.67 474.88 -12.32Q475.75 -11.98 477.25 -11.57Q479.25 -11.02 480.52 -10.47Q481.78 -9.92 482.66 -8.77Q483.55 -7.63 483.55 -5.71Q483.55 -4.18 482.72 -2.81Q481.89 -1.45 480.31 -0.62Q478.73 0.2 476.59 0.2Q474.56 0.2 472.93 -0.51Q471.31 -1.22 470.38 -2.52Q469.45 -3.83 469.45 -5.57Z M501.93 -15.98V0H498.63V-1.89Q497.84 -0.9 496.58 -0.33Q495.32 0.23 493.9 0.23Q492.01 0.23 490.52 -0.55Q489.03 -1.33 488.17 -2.87Q487.32 -4.41 487.32 -6.58V-15.98H490.59V-7.08Q490.59 -4.93 491.67 -3.78Q492.74 -2.64 494.6 -2.64Q496.45 -2.64 497.54 -3.78Q498.63 -4.93 498.63 -7.08V-15.98Z M515.16 -16.24Q517.24 -16.24 518.97 -15.21Q520.7 -14.18 521.68 -12.33Q522.67 -10.47 522.67 -8.06Q522.67 -5.66 521.68 -3.76Q520.7 -1.86 518.97 -0.8Q517.24 0.26 515.16 0.26Q513.33 0.26 511.91 -0.48Q510.49 -1.22 509.59 -2.32V7.6H506.28V-15.98H509.59V-13.63Q510.43 -14.73 511.88 -15.49Q513.33 -16.24 515.16 -16.24ZM514.43 -13.37Q513.18 -13.37 512.07 -12.73Q510.95 -12.09 510.27 -10.88Q509.59 -9.66 509.59 -8Q509.59 -6.35 510.27 -5.12Q510.95 -3.89 512.07 -3.25Q513.18 -2.61 514.43 -2.61Q515.71 -2.61 516.82 -3.26Q517.94 -3.92 518.62 -5.16Q519.3 -6.41 519.3 -8.06Q519.3 -9.71 518.62 -10.92Q517.94 -12.12 516.82 -12.75Q515.71 -13.37 514.43 -13.37Z M540.47 -6.76H528.26Q528.41 -4.84 529.69 -3.68Q530.96 -2.52 532.82 -2.52Q535.49 -2.52 536.59 -4.76H540.15Q539.43 -2.55 537.53 -1.15Q535.63 0.26 532.82 0.26Q530.53 0.26 528.71 -0.77Q526.9 -1.8 525.87 -3.67Q524.84 -5.54 524.84 -8Q524.84 -10.47 525.84 -12.34Q526.84 -14.21 528.66 -15.23Q530.47 -16.24 532.82 -16.24Q535.08 -16.24 536.85 -15.25Q538.62 -14.27 539.6 -12.48Q540.59 -10.7 540.59 -8.38Q540.59 -7.48 540.47 -6.76ZM537.14 -9.43Q537.11 -11.25 535.83 -12.35Q534.56 -13.46 532.67 -13.46Q530.96 -13.46 529.74 -12.37Q528.53 -11.28 528.29 -9.43Z M551.93 -16.24V-12.82H551.09Q549.14 -12.82 548.14 -11.83Q547.14 -10.85 547.14 -8.41V0H543.84V-15.98H547.14V-13.66Q547.87 -14.88 549.07 -15.56Q550.28 -16.24 551.93 -16.24Z M554.54 -20.21Q554.54 -21.11 555.15 -21.72Q555.76 -22.33 556.66 -22.33Q557.53 -22.33 558.13 -21.72Q558.74 -21.11 558.74 -20.21Q558.74 -19.31 558.13 -18.7Q557.53 -18.1 556.66 -18.1Q555.76 -18.1 555.15 -18.7Q554.54 -19.31 554.54 -20.21ZM558.28 -15.98V0H554.97V-15.98Z M561.56 -8Q561.56 -10.44 562.63 -12.33Q563.7 -14.21 565.56 -15.23Q567.41 -16.24 569.71 -16.24Q572 -16.24 573.85 -15.23Q575.71 -14.21 576.78 -12.33Q577.85 -10.44 577.85 -8Q577.85 -5.57 576.75 -3.68Q575.65 -1.8 573.75 -0.77Q571.85 0.26 569.56 0.26Q567.3 0.26 565.47 -0.77Q563.64 -1.8 562.6 -3.67Q561.56 -5.54 561.56 -8ZM574.46 -8Q574.46 -9.74 573.79 -10.95Q573.13 -12.15 572.03 -12.76Q570.92 -13.37 569.65 -13.37Q568.37 -13.37 567.28 -12.76Q566.2 -12.15 565.56 -10.95Q564.92 -9.74 564.92 -8Q564.92 -5.42 566.24 -4.02Q567.56 -2.61 569.56 -2.61Q570.84 -2.61 571.95 -3.22Q573.07 -3.83 573.77 -5.05Q574.46 -6.26 574.46 -8Z M589.22 -16.24V-12.82H588.38Q586.44 -12.82 585.44 -11.83Q584.44 -10.85 584.44 -8.41V0H581.13V-15.98H584.44V-13.66Q585.16 -14.88 586.37 -15.56Q587.57 -16.24 589.22 -16.24Z M603.11 -17.49V-11.57H610.07V-8.87H603.11V-2.7H610.94V0H599.81V-20.18H610.94V-17.49Z M618.31 -21.46V0H615V-21.46Z M637.19 -6.76H624.98Q625.12 -4.84 626.4 -3.68Q627.68 -2.52 629.53 -2.52Q632.2 -2.52 633.3 -4.76H636.87Q636.14 -2.55 634.24 -1.15Q632.34 0.26 629.53 0.26Q627.24 0.26 625.43 -0.77Q623.62 -1.8 622.59 -3.67Q621.56 -5.54 621.56 -8Q621.56 -10.47 622.56 -12.34Q623.56 -14.21 625.37 -15.23Q627.18 -16.24 629.53 -16.24Q631.79 -16.24 633.56 -15.25Q635.33 -14.27 636.32 -12.48Q637.3 -10.7 637.3 -8.38Q637.3 -7.48 637.19 -6.76ZM633.85 -9.43Q633.82 -11.25 632.55 -12.35Q631.27 -13.46 629.39 -13.46Q627.68 -13.46 626.46 -12.37Q625.24 -11.28 625.01 -9.43Z M640.12 -20.21Q640.12 -21.11 640.73 -21.72Q641.33 -22.33 642.23 -22.33Q643.1 -22.33 643.71 -21.72Q644.32 -21.11 644.32 -20.21Q644.32 -19.31 643.71 -18.7Q643.1 -18.1 642.23 -18.1Q641.33 -18.1 640.73 -18.7Q640.12 -19.31 640.12 -20.21ZM643.86 -15.98V0H640.55V-15.98Z M652.06 -13.28V-4.44Q652.06 -3.54 652.49 -3.15Q652.91 -2.76 653.92 -2.76H655.95V0H653.34Q651.11 0 649.92 -1.04Q648.73 -2.09 648.73 -4.44V-13.28H646.84V-15.98H648.73V-19.95H652.06V-15.98H655.95V-13.28Z M657.92 -8Q657.92 -10.44 659 -12.33Q660.07 -14.21 661.92 -15.23Q663.78 -16.24 666.07 -16.24Q668.36 -16.24 670.22 -15.23Q672.07 -14.21 673.15 -12.33Q674.22 -10.44 674.22 -8Q674.22 -5.57 673.12 -3.68Q672.02 -1.8 670.12 -0.77Q668.22 0.26 665.93 0.26Q663.66 0.26 661.84 -0.77Q660.01 -1.8 658.97 -3.67Q657.92 -5.54 657.92 -8ZM670.83 -8Q670.83 -9.74 670.16 -10.95Q669.49 -12.15 668.39 -12.76Q667.29 -13.37 666.01 -13.37Q664.74 -13.37 663.65 -12.76Q662.56 -12.15 661.92 -10.95Q661.29 -9.74 661.29 -8Q661.29 -5.42 662.61 -4.02Q663.93 -2.61 665.93 -2.61Q667.2 -2.61 668.32 -3.22Q669.44 -3.83 670.13 -5.05Q670.83 -6.26 670.83 -8Z M685.59 -16.24V-12.82H684.75Q682.8 -12.82 681.8 -11.83Q680.8 -10.85 680.8 -8.41V0H677.5V-15.98H680.8V-13.66Q681.53 -14.88 682.73 -15.56Q683.94 -16.24 685.59 -16.24Z M695.07 -16.24Q696.96 -16.24 698.36 -15.5Q699.77 -14.76 700.61 -13.66V-15.98H703.95V0H700.61V-2.38Q699.77 -1.25 698.32 -0.49Q696.87 0.26 695.01 0.26Q692.95 0.26 691.24 -0.8Q689.53 -1.86 688.53 -3.76Q687.53 -5.66 687.53 -8.06Q687.53 -10.47 688.53 -12.33Q689.53 -14.18 691.26 -15.21Q692.98 -16.24 695.07 -16.24ZM695.77 -13.37Q694.49 -13.37 693.39 -12.75Q692.29 -12.12 691.61 -10.92Q690.92 -9.71 690.92 -8.06Q690.92 -6.41 691.61 -5.16Q692.29 -3.92 693.4 -3.26Q694.52 -2.61 695.77 -2.61Q697.04 -2.61 698.15 -3.25Q699.25 -3.89 699.93 -5.12Q700.61 -6.35 700.61 -8Q700.61 -9.66 699.93 -10.88Q699.25 -12.09 698.15 -12.73Q697.04 -13.37 695.77 -13.37Z M711.6 -21.46V0H708.3V-21.46Z" fill="#E2E8F0"/></g><g transform="translate(80 466)"><path d="M9.39 -2.7H3.86L2.91 0H0.65L5.38 -13.22H7.88L12.62 0H10.34ZM8.78 -4.46 6.63 -10.6 4.46 -4.46Z M20.48 -10.64Q21.85 -10.64 22.98 -9.97Q24.11 -9.29 24.76 -8.07Q25.4 -6.86 25.4 -5.28Q25.4 -3.71 24.76 -2.46Q24.11 -1.22 22.98 -0.52Q21.85 0.17 20.48 0.17Q19.29 0.17 18.35 -0.31Q17.42 -0.8 16.83 -1.52V4.98H14.67V-10.47H16.83V-8.93Q17.38 -9.65 18.34 -10.15Q19.29 -10.64 20.48 -10.64ZM20.01 -8.76Q19.19 -8.76 18.46 -8.34Q17.73 -7.92 17.28 -7.12Q16.83 -6.33 16.83 -5.24Q16.83 -4.16 17.28 -3.35Q17.73 -2.55 18.46 -2.13Q19.19 -1.71 20.01 -1.71Q20.84 -1.71 21.57 -2.14Q22.31 -2.56 22.75 -3.38Q23.2 -4.2 23.2 -5.28Q23.2 -6.37 22.75 -7.15Q22.31 -7.94 21.57 -8.35Q20.84 -8.76 20.01 -8.76Z M33.36 -10.64Q34.73 -10.64 35.86 -9.97Q36.99 -9.29 37.64 -8.07Q38.28 -6.86 38.28 -5.28Q38.28 -3.71 37.64 -2.46Q36.99 -1.22 35.86 -0.52Q34.73 0.17 33.36 0.17Q32.17 0.17 31.24 -0.31Q30.3 -0.8 29.72 -1.52V4.98H27.55V-10.47H29.72V-8.93Q30.27 -9.65 31.22 -10.15Q32.17 -10.64 33.36 -10.64ZM32.89 -8.76Q32.07 -8.76 31.34 -8.34Q30.61 -7.92 30.16 -7.12Q29.72 -6.33 29.72 -5.24Q29.72 -4.16 30.16 -3.35Q30.61 -2.55 31.34 -2.13Q32.07 -1.71 32.89 -1.71Q33.73 -1.71 34.46 -2.14Q35.19 -2.56 35.63 -3.38Q36.08 -4.2 36.08 -5.28Q36.08 -6.37 35.63 -7.15Q35.19 -7.94 34.46 -8.35Q33.73 -8.76 32.89 -8.76Z M45.09 -13.24Q45.09 -13.83 45.49 -14.23Q45.88 -14.63 46.47 -14.63Q47.04 -14.63 47.44 -14.23Q47.84 -13.83 47.84 -13.24Q47.84 -12.65 47.44 -12.25Q47.04 -11.86 46.47 -11.86Q45.88 -11.86 45.49 -12.25Q45.09 -12.65 45.09 -13.24ZM47.54 -10.47V0H45.37V-10.47Z M59.96 -6.17V0H57.82V-5.85Q57.82 -7.26 57.11 -8.01Q56.41 -8.76 55.19 -8.76Q53.98 -8.76 53.27 -8.01Q52.55 -7.26 52.55 -5.85V0H50.39V-10.47H52.55V-9.27Q53.09 -9.92 53.91 -10.28Q54.74 -10.64 55.67 -10.64Q56.9 -10.64 57.88 -10.13Q58.86 -9.61 59.41 -8.61Q59.96 -7.6 59.96 -6.17Z M66.96 -10.64Q67.98 -10.64 68.98 -10.19Q69.98 -9.75 70.57 -9.01V-14.06H72.75V0H70.57V-1.58Q70.03 -0.82 69.09 -0.32Q68.15 0.17 66.94 0.17Q65.57 0.17 64.44 -0.52Q63.31 -1.22 62.65 -2.46Q62 -3.71 62 -5.28Q62 -6.86 62.65 -8.07Q63.31 -9.29 64.44 -9.97Q65.57 -10.64 66.96 -10.64ZM67.39 -8.76Q66.56 -8.76 65.84 -8.35Q65.11 -7.94 64.67 -7.15Q64.22 -6.37 64.22 -5.28Q64.22 -4.2 64.67 -3.38Q65.11 -2.56 65.84 -2.14Q66.58 -1.71 67.39 -1.71Q68.23 -1.71 68.95 -2.13Q69.67 -2.55 70.12 -3.35Q70.57 -4.16 70.57 -5.24Q70.57 -6.33 70.12 -7.12Q69.67 -7.92 68.95 -8.34Q68.23 -8.76 67.39 -8.76Z M85.12 -4.43H77.12Q77.22 -3.17 78.05 -2.41Q78.89 -1.65 80.1 -1.65Q81.85 -1.65 82.57 -3.12H84.91Q84.44 -1.67 83.19 -0.75Q81.95 0.17 80.1 0.17Q78.6 0.17 77.42 -0.5Q76.23 -1.18 75.55 -2.4Q74.88 -3.63 74.88 -5.24Q74.88 -6.86 75.53 -8.08Q76.19 -9.31 77.38 -9.98Q78.56 -10.64 80.1 -10.64Q81.59 -10.64 82.75 -9.99Q83.9 -9.35 84.55 -8.18Q85.2 -7.01 85.2 -5.49Q85.2 -4.9 85.12 -4.43ZM82.94 -6.17Q82.92 -7.37 82.08 -8.09Q81.24 -8.82 80.01 -8.82Q78.89 -8.82 78.09 -8.1Q77.29 -7.39 77.14 -6.17Z M93.14 -10.64Q94.51 -10.64 95.64 -9.97Q96.77 -9.29 97.41 -8.07Q98.06 -6.86 98.06 -5.28Q98.06 -3.71 97.41 -2.46Q96.77 -1.22 95.64 -0.52Q94.51 0.17 93.14 0.17Q91.94 0.17 91.01 -0.31Q90.08 -0.8 89.49 -1.52V4.98H87.32V-10.47H89.49V-8.93Q90.04 -9.65 90.99 -10.15Q91.94 -10.64 93.14 -10.64ZM92.66 -8.76Q91.85 -8.76 91.11 -8.34Q90.38 -7.92 89.94 -7.12Q89.49 -6.33 89.49 -5.24Q89.49 -4.16 89.94 -3.35Q90.38 -2.55 91.11 -2.13Q91.85 -1.71 92.66 -1.71Q93.5 -1.71 94.23 -2.14Q94.96 -2.56 95.41 -3.38Q95.86 -4.2 95.86 -5.28Q95.86 -6.37 95.41 -7.15Q94.96 -7.94 94.23 -8.35Q93.5 -8.76 92.66 -8.76Z M109.73 -4.43H101.73Q101.82 -3.17 102.66 -2.41Q103.49 -1.65 104.71 -1.65Q106.46 -1.65 107.18 -3.12H109.52Q109.04 -1.67 107.8 -0.75Q106.55 0.17 104.71 0.17Q103.21 0.17 102.02 -0.5Q100.83 -1.18 100.16 -2.4Q99.48 -3.63 99.48 -5.24Q99.48 -6.86 100.14 -8.08Q100.8 -9.31 101.98 -9.98Q103.17 -10.64 104.71 -10.64Q106.19 -10.64 107.35 -9.99Q108.51 -9.35 109.16 -8.18Q109.8 -7.01 109.8 -5.49Q109.8 -4.9 109.73 -4.43ZM107.54 -6.17Q107.52 -7.37 106.69 -8.09Q105.85 -8.82 104.61 -8.82Q103.49 -8.82 102.7 -8.1Q101.9 -7.39 101.75 -6.17Z M121.51 -6.17V0H119.36V-5.85Q119.36 -7.26 118.66 -8.01Q117.95 -8.76 116.74 -8.76Q115.52 -8.76 114.81 -8.01Q114.09 -7.26 114.09 -5.85V0H111.93V-10.47H114.09V-9.27Q114.63 -9.92 115.45 -10.28Q116.28 -10.64 117.21 -10.64Q118.45 -10.64 119.42 -10.13Q120.4 -9.61 120.95 -8.61Q121.51 -7.6 121.51 -6.17Z M128.5 -10.64Q129.52 -10.64 130.52 -10.19Q131.52 -9.75 132.11 -9.01V-14.06H134.29V0H132.11V-1.58Q131.58 -0.82 130.63 -0.32Q129.69 0.17 128.48 0.17Q127.11 0.17 125.98 -0.52Q124.85 -1.22 124.19 -2.46Q123.54 -3.71 123.54 -5.28Q123.54 -6.86 124.19 -8.07Q124.85 -9.29 125.98 -9.97Q127.11 -10.64 128.5 -10.64ZM128.93 -8.76Q128.1 -8.76 127.38 -8.35Q126.65 -7.94 126.21 -7.15Q125.76 -6.37 125.76 -5.28Q125.76 -4.2 126.21 -3.38Q126.65 -2.56 127.39 -2.14Q128.12 -1.71 128.93 -1.71Q129.77 -1.71 130.49 -2.13Q131.21 -2.55 131.66 -3.35Q132.11 -4.16 132.11 -5.24Q132.11 -6.33 131.66 -7.12Q131.21 -7.92 130.49 -8.34Q129.77 -8.76 128.93 -8.76Z M146.66 -4.43H138.66Q138.76 -3.17 139.59 -2.41Q140.43 -1.65 141.65 -1.65Q143.39 -1.65 144.12 -3.12H146.45Q145.98 -1.67 144.73 -0.75Q143.49 0.17 141.65 0.17Q140.14 0.17 138.96 -0.5Q137.77 -1.18 137.09 -2.4Q136.42 -3.63 136.42 -5.24Q136.42 -6.86 137.08 -8.08Q137.73 -9.31 138.92 -9.98Q140.11 -10.64 141.65 -10.64Q143.13 -10.64 144.29 -9.99Q145.45 -9.35 146.09 -8.18Q146.74 -7.01 146.74 -5.49Q146.74 -4.9 146.66 -4.43ZM144.48 -6.17Q144.46 -7.37 143.62 -8.09Q142.79 -8.82 141.55 -8.82Q140.43 -8.82 139.63 -8.1Q138.83 -7.39 138.68 -6.17Z M158.44 -6.17V0H156.29V-5.85Q156.29 -7.26 155.59 -8.01Q154.89 -8.76 153.67 -8.76Q152.46 -8.76 151.74 -8.01Q151.03 -7.26 151.03 -5.85V0H148.87V-10.47H151.03V-9.27Q151.56 -9.92 152.39 -10.28Q153.22 -10.64 154.15 -10.64Q155.38 -10.64 156.36 -10.13Q157.34 -9.61 157.89 -8.61Q158.44 -7.6 158.44 -6.17Z M163.72 -8.7V-2.91Q163.72 -2.32 164 -2.06Q164.27 -1.8 164.94 -1.8H166.27V0H164.56Q163.1 0 162.32 -0.68Q161.54 -1.37 161.54 -2.91V-8.7H160.3V-10.47H161.54V-13.07H163.72V-10.47H166.27V-8.7Z M177.78 -4.43H169.78Q169.88 -3.17 170.71 -2.41Q171.55 -1.65 172.77 -1.65Q174.51 -1.65 175.24 -3.12H177.57Q177.1 -1.67 175.85 -0.75Q174.61 0.17 172.77 0.17Q171.27 0.17 170.08 -0.5Q168.89 -1.18 168.22 -2.4Q167.54 -3.63 167.54 -5.24Q167.54 -6.86 168.2 -8.08Q168.85 -9.31 170.04 -9.98Q171.23 -10.64 172.77 -10.64Q174.25 -10.64 175.41 -9.99Q176.57 -9.35 177.21 -8.18Q177.86 -7.01 177.86 -5.49Q177.86 -4.9 177.78 -4.43ZM175.6 -6.17Q175.58 -7.37 174.74 -8.09Q173.91 -8.82 172.67 -8.82Q171.55 -8.82 170.75 -8.1Q169.96 -7.39 169.8 -6.17Z M184.49 -6.37Q184.49 -6.95 184.89 -7.35Q185.29 -7.75 185.88 -7.75Q186.45 -7.75 186.85 -7.35Q187.25 -6.95 187.25 -6.37Q187.25 -5.78 186.85 -5.38Q186.45 -4.98 185.88 -4.98Q185.29 -4.98 184.89 -5.38Q184.49 -5.78 184.49 -6.37Z M193.93 -3.21H196.18Q196.23 -2.55 196.81 -2.1Q197.39 -1.65 198.27 -1.65Q199.18 -1.65 199.68 -2Q200.18 -2.36 200.18 -2.91Q200.18 -3.5 199.62 -3.78Q199.06 -4.07 197.85 -4.41Q196.67 -4.73 195.93 -5.04Q195.19 -5.34 194.65 -5.97Q194.1 -6.59 194.1 -7.62Q194.1 -8.46 194.6 -9.15Q195.09 -9.84 196.01 -10.24Q196.94 -10.64 198.13 -10.64Q199.92 -10.64 201.01 -9.74Q202.1 -8.83 202.18 -7.28H200.01Q199.96 -7.98 199.44 -8.4Q198.93 -8.82 198.06 -8.82Q197.2 -8.82 196.75 -8.49Q196.29 -8.17 196.29 -7.64Q196.29 -7.22 196.59 -6.93Q196.9 -6.65 197.33 -6.49Q197.77 -6.33 198.63 -6.08Q199.77 -5.78 200.5 -5.46Q201.23 -5.15 201.76 -4.54Q202.29 -3.93 202.31 -2.93Q202.31 -2.03 201.82 -1.33Q201.32 -0.63 200.42 -0.23Q199.52 0.17 198.3 0.17Q197.07 0.17 196.09 -0.28Q195.11 -0.72 194.54 -1.49Q193.97 -2.26 193.93 -3.21Z M214.17 -4.43H206.17Q206.26 -3.17 207.1 -2.41Q207.94 -1.65 209.15 -1.65Q210.9 -1.65 211.62 -3.12H213.96Q213.48 -1.67 212.24 -0.75Q210.99 0.17 209.15 0.17Q207.65 0.17 206.46 -0.5Q205.28 -1.18 204.6 -2.4Q203.93 -3.63 203.93 -5.24Q203.93 -6.86 204.58 -8.08Q205.24 -9.31 206.43 -9.98Q207.61 -10.64 209.15 -10.64Q210.63 -10.64 211.79 -9.99Q212.95 -9.35 213.6 -8.18Q214.24 -7.01 214.24 -5.49Q214.24 -4.9 214.17 -4.43ZM211.98 -6.17Q211.96 -7.37 211.13 -8.09Q210.29 -8.82 209.06 -8.82Q207.94 -8.82 207.14 -8.1Q206.34 -7.39 206.19 -6.17Z M233.36 -6.17V0H231.21V-5.85Q231.21 -7.26 230.51 -8.01Q229.81 -8.76 228.59 -8.76Q227.37 -8.76 226.66 -8.01Q225.95 -7.26 225.95 -5.85V0H223.8V-5.85Q223.8 -7.26 223.1 -8.01Q222.4 -8.76 221.18 -8.76Q219.96 -8.76 219.25 -8.01Q218.54 -7.26 218.54 -5.85V0H216.37V-10.47H218.54V-9.27Q219.07 -9.92 219.89 -10.28Q220.7 -10.64 221.63 -10.64Q222.89 -10.64 223.88 -10.11Q224.87 -9.58 225.4 -8.57Q225.87 -9.52 226.88 -10.08Q227.89 -10.64 229.05 -10.64Q230.28 -10.64 231.26 -10.13Q232.24 -9.61 232.8 -8.61Q233.36 -7.6 233.36 -6.17Z M245.1 -1.94 248.06 -10.47H250.36L246.37 0H243.79L239.82 -10.47H242.14Z M254.16 -10.47V0H252V-10.47ZM255.04 -13.28 250.84 -11.21V-12.81L255.04 -15.12Z M266.59 -6.17V0H264.44V-5.85Q264.44 -7.26 263.74 -8.01Q263.04 -8.76 261.82 -8.76Q260.6 -8.76 259.89 -8.01Q259.18 -7.26 259.18 -5.85V0H257.01V-10.47H259.18V-9.27Q259.71 -9.92 260.54 -10.28Q261.36 -10.64 262.29 -10.64Q263.53 -10.64 264.51 -10.13Q265.49 -9.61 266.04 -8.61Q266.59 -7.6 266.59 -6.17Z M273.75 -10.64Q275.65 -10.64 276.9 -9.74Q278.14 -8.83 278.58 -7.16H276.24Q275.96 -7.94 275.33 -8.38Q274.7 -8.82 273.75 -8.82Q272.42 -8.82 271.63 -7.88Q270.84 -6.93 270.84 -5.24Q270.84 -3.55 271.63 -2.6Q272.42 -1.65 273.75 -1.65Q275.63 -1.65 276.24 -3.31H278.58Q278.12 -1.71 276.87 -0.77Q275.61 0.17 273.75 0.17Q272.25 0.17 271.09 -0.5Q269.93 -1.18 269.28 -2.4Q268.62 -3.63 268.62 -5.24Q268.62 -6.86 269.28 -8.08Q269.93 -9.31 271.09 -9.98Q272.25 -10.64 273.75 -10.64Z M290.22 -10.47V0H288.06V-1.23Q287.55 -0.59 286.72 -0.22Q285.89 0.15 284.96 0.15Q283.73 0.15 282.75 -0.36Q281.77 -0.87 281.21 -1.88Q280.65 -2.89 280.65 -4.31V-10.47H282.8V-4.64Q282.8 -3.23 283.5 -2.48Q284.2 -1.73 285.42 -1.73Q286.63 -1.73 287.35 -2.48Q288.06 -3.23 288.06 -4.64V-10.47Z M295.24 -14.06V0H293.07V-14.06Z M297.39 -5.24Q297.39 -6.84 298.09 -8.07Q298.79 -9.31 300.01 -9.98Q301.23 -10.64 302.73 -10.64Q304.23 -10.64 305.44 -9.98Q306.66 -9.31 307.36 -8.07Q308.07 -6.84 308.07 -5.24Q308.07 -3.65 307.34 -2.41Q306.62 -1.18 305.38 -0.5Q304.13 0.17 302.63 0.17Q301.15 0.17 299.95 -0.5Q298.76 -1.18 298.07 -2.4Q297.39 -3.63 297.39 -5.24ZM305.84 -5.24Q305.84 -6.38 305.41 -7.17Q304.97 -7.96 304.25 -8.36Q303.52 -8.76 302.69 -8.76Q301.85 -8.76 301.14 -8.36Q300.43 -7.96 300.01 -7.17Q299.59 -6.38 299.59 -5.24Q299.59 -3.55 300.46 -2.63Q301.32 -1.71 302.63 -1.71Q303.47 -1.71 304.2 -2.11Q304.93 -2.51 305.39 -3.31Q305.84 -4.1 305.84 -5.24Z M319.56 -10.64Q321.46 -10.64 322.71 -9.74Q323.95 -8.83 324.39 -7.16H322.05Q321.76 -7.94 321.14 -8.38Q320.51 -8.82 319.56 -8.82Q318.23 -8.82 317.44 -7.88Q316.65 -6.93 316.65 -5.24Q316.65 -3.55 317.44 -2.6Q318.23 -1.65 319.56 -1.65Q321.44 -1.65 322.05 -3.31H324.39Q323.93 -1.71 322.68 -0.77Q321.42 0.17 319.56 0.17Q318.06 0.17 316.9 -0.5Q315.74 -1.18 315.09 -2.4Q314.43 -3.63 314.43 -5.24Q314.43 -6.86 315.09 -8.08Q315.74 -9.31 316.9 -9.98Q318.06 -10.64 319.56 -10.64Z M325.85 -5.24Q325.85 -6.84 326.55 -8.07Q327.26 -9.31 328.47 -9.98Q329.69 -10.64 331.19 -10.64Q332.69 -10.64 333.91 -9.98Q335.12 -9.31 335.82 -8.07Q336.53 -6.84 336.53 -5.24Q336.53 -3.65 335.81 -2.41Q335.08 -1.18 333.84 -0.5Q332.59 0.17 331.09 0.17Q329.61 0.17 328.41 -0.5Q327.22 -1.18 326.53 -2.4Q325.85 -3.63 325.85 -5.24ZM334.31 -5.24Q334.31 -6.38 333.87 -7.17Q333.43 -7.96 332.71 -8.36Q331.99 -8.76 331.15 -8.76Q330.31 -8.76 329.6 -8.36Q328.89 -7.96 328.47 -7.17Q328.05 -6.38 328.05 -5.24Q328.05 -3.55 328.92 -2.63Q329.78 -1.71 331.09 -1.71Q331.93 -1.71 332.66 -2.11Q333.39 -2.51 333.85 -3.31Q334.31 -4.1 334.31 -5.24Z M355.66 -6.17V0H353.51V-5.85Q353.51 -7.26 352.81 -8.01Q352.11 -8.76 350.89 -8.76Q349.68 -8.76 348.96 -8.01Q348.25 -7.26 348.25 -5.85V0H346.1V-5.85Q346.1 -7.26 345.4 -8.01Q344.7 -8.76 343.48 -8.76Q342.27 -8.76 341.55 -8.01Q340.84 -7.26 340.84 -5.85V0H338.68V-10.47H340.84V-9.27Q341.37 -9.92 342.19 -10.28Q343.01 -10.64 343.94 -10.64Q345.19 -10.64 346.18 -10.11Q347.17 -9.58 347.7 -8.57Q348.18 -9.52 349.18 -10.08Q350.19 -10.64 351.35 -10.64Q352.58 -10.64 353.56 -10.13Q354.54 -9.61 355.1 -8.61Q355.66 -7.6 355.66 -6.17Z M362.65 -5.24Q362.65 -6.84 363.36 -8.07Q364.06 -9.31 365.27 -9.98Q366.49 -10.64 367.99 -10.64Q369.49 -10.64 370.71 -9.98Q371.92 -9.31 372.63 -8.07Q373.33 -6.84 373.33 -5.24Q373.33 -3.65 372.61 -2.41Q371.89 -1.18 370.64 -0.5Q369.4 0.17 367.9 0.17Q366.41 0.17 365.22 -0.5Q364.02 -1.18 363.34 -2.4Q362.65 -3.63 362.65 -5.24ZM371.11 -5.24Q371.11 -6.38 370.67 -7.17Q370.23 -7.96 369.51 -8.36Q368.79 -8.76 367.95 -8.76Q367.12 -8.76 366.41 -8.36Q365.69 -7.96 365.27 -7.17Q364.86 -6.38 364.86 -5.24Q364.86 -3.55 365.72 -2.63Q366.59 -1.71 367.9 -1.71Q368.73 -1.71 369.46 -2.11Q370.2 -2.51 370.65 -3.31Q371.11 -4.1 371.11 -5.24Z M388.95 -13.21V-11.44H385.43V0H383.27V-11.44H379.73V-13.21Z M390.81 -3.65H393.13Q393.2 -2.79 393.8 -2.24Q394.4 -1.69 395.49 -1.69Q396.61 -1.69 397.23 -2.23Q397.86 -2.77 397.86 -3.63Q397.86 -4.29 397.47 -4.71Q397.08 -5.13 396.5 -5.36Q395.92 -5.59 394.9 -5.85Q393.6 -6.19 392.8 -6.55Q391.99 -6.9 391.42 -7.64Q390.85 -8.38 390.85 -9.61Q390.85 -10.75 391.42 -11.61Q391.99 -12.46 393.01 -12.92Q394.04 -13.38 395.39 -13.38Q397.31 -13.38 398.53 -12.42Q399.76 -11.46 399.89 -9.79H397.5Q397.44 -10.51 396.81 -11.02Q396.19 -11.53 395.16 -11.53Q394.23 -11.53 393.64 -11.06Q393.05 -10.58 393.05 -9.69Q393.05 -9.08 393.42 -8.69Q393.79 -8.3 394.36 -8.07Q394.93 -7.85 395.92 -7.58Q397.23 -7.22 398.06 -6.86Q398.89 -6.5 399.47 -5.75Q400.05 -5 400.05 -3.74Q400.05 -2.74 399.5 -1.84Q398.96 -0.95 397.93 -0.41Q396.89 0.13 395.49 0.13Q394.16 0.13 393.09 -0.33Q392.03 -0.8 391.42 -1.65Q390.81 -2.51 390.81 -3.65Z M404.78 -11.46V-7.58H409.34V-5.81H404.78V-1.77H409.91V0H402.61V-13.22H409.91V-11.46Z M414.94 -2.6 412.64 2.64H411.24L412.59 -2.6Z M429.63 -8.95V-10.47H431.81V0.17Q431.81 1.61 431.2 2.75Q430.6 3.88 429.45 4.52Q428.3 5.17 426.7 5.17Q424.57 5.17 423.17 4.17Q421.76 3.17 421.57 1.46H423.72Q423.97 2.28 424.77 2.78Q425.58 3.29 426.7 3.29Q428.01 3.29 428.82 2.49Q429.63 1.69 429.63 0.17V-1.58Q429.08 -0.84 428.14 -0.33Q427.2 0.17 426 0.17Q424.63 0.17 423.5 -0.52Q422.37 -1.22 421.71 -2.46Q421.06 -3.71 421.06 -5.28Q421.06 -6.86 421.71 -8.07Q422.37 -9.29 423.5 -9.97Q424.63 -10.64 426 -10.64Q427.21 -10.64 428.16 -10.16Q429.1 -9.67 429.63 -8.95ZM426.45 -8.76Q425.62 -8.76 424.9 -8.35Q424.18 -7.94 423.73 -7.15Q423.28 -6.37 423.28 -5.28Q423.28 -4.2 423.73 -3.38Q424.18 -2.56 424.91 -2.14Q425.64 -1.71 426.45 -1.71Q427.29 -1.71 428.01 -2.13Q428.74 -2.55 429.18 -3.35Q429.63 -4.16 429.63 -5.24Q429.63 -6.33 429.18 -7.12Q428.74 -7.92 428.01 -8.34Q427.29 -8.76 426.45 -8.76Z M433.96 -5.24Q433.96 -6.84 434.66 -8.07Q435.37 -9.31 436.58 -9.98Q437.8 -10.64 439.3 -10.64Q440.8 -10.64 442.02 -9.98Q443.23 -9.31 443.93 -8.07Q444.64 -6.84 444.64 -5.24Q444.64 -3.65 443.92 -2.41Q443.19 -1.18 441.95 -0.5Q440.7 0.17 439.2 0.17Q437.72 0.17 436.52 -0.5Q435.33 -1.18 434.64 -2.4Q433.96 -3.63 433.96 -5.24ZM442.42 -5.24Q442.42 -6.38 441.98 -7.17Q441.54 -7.96 440.82 -8.36Q440.1 -8.76 439.26 -8.76Q438.43 -8.76 437.71 -8.36Q437 -7.96 436.58 -7.17Q436.16 -6.38 436.16 -5.24Q436.16 -3.55 437.03 -2.63Q437.89 -1.71 439.2 -1.71Q440.04 -1.71 440.77 -2.11Q441.5 -2.51 441.96 -3.31Q442.42 -4.1 442.42 -5.24Z M450.83 -1.94 453.8 -10.47H456.1L452.11 0H449.52L445.55 -10.47H447.87Z M467.25 -4.43H459.25Q459.34 -3.17 460.18 -2.41Q461.02 -1.65 462.23 -1.65Q463.98 -1.65 464.7 -3.12H467.04Q466.56 -1.67 465.32 -0.75Q464.08 0.17 462.23 0.17Q460.73 0.17 459.54 -0.5Q458.36 -1.18 457.68 -2.4Q457.01 -3.63 457.01 -5.24Q457.01 -6.86 457.66 -8.08Q458.32 -9.31 459.51 -9.98Q460.69 -10.64 462.23 -10.64Q463.71 -10.64 464.87 -9.99Q466.03 -9.35 466.68 -8.18Q467.32 -7.01 467.32 -5.49Q467.32 -4.9 467.25 -4.43ZM465.06 -6.17Q465.04 -7.37 464.21 -8.09Q463.37 -8.82 462.14 -8.82Q461.02 -8.82 460.22 -8.1Q459.42 -7.39 459.27 -6.17Z M474.75 -10.64V-8.4H474.2Q472.93 -8.4 472.27 -7.75Q471.62 -7.11 471.62 -5.51V0H469.45V-10.47H471.62V-8.95Q472.09 -9.75 472.88 -10.19Q473.67 -10.64 474.75 -10.64Z M486.32 -6.17V0H484.18V-5.85Q484.18 -7.26 483.47 -8.01Q482.77 -8.76 481.56 -8.76Q480.34 -8.76 479.63 -8.01Q478.91 -7.26 478.91 -5.85V0H476.75V-10.47H478.91V-9.27Q479.45 -9.92 480.27 -10.28Q481.1 -10.64 482.03 -10.64Q483.27 -10.64 484.24 -10.13Q485.22 -9.61 485.77 -8.61Q486.32 -7.6 486.32 -6.17Z M488.38 -5.24Q488.38 -6.84 489.08 -8.07Q489.78 -9.31 491 -9.98Q492.21 -10.64 493.72 -10.64Q495.22 -10.64 496.43 -9.98Q497.65 -9.31 498.35 -8.07Q499.05 -6.84 499.05 -5.24Q499.05 -3.65 498.33 -2.41Q497.61 -1.18 496.37 -0.5Q495.12 0.17 493.62 0.17Q492.14 0.17 490.94 -0.5Q489.74 -1.18 489.06 -2.4Q488.38 -3.63 488.38 -5.24ZM496.83 -5.24Q496.83 -6.38 496.39 -7.17Q495.96 -7.96 495.24 -8.36Q494.51 -8.76 493.68 -8.76Q492.84 -8.76 492.13 -8.36Q491.42 -7.96 491 -7.17Q490.58 -6.38 490.58 -5.24Q490.58 -3.55 491.44 -2.63Q492.31 -1.71 493.62 -1.71Q494.46 -1.71 495.19 -2.11Q495.92 -2.51 496.38 -3.31Q496.83 -4.1 496.83 -5.24Z M505.44 -5.24Q505.44 -6.84 506.14 -8.07Q506.84 -9.31 508.06 -9.98Q509.28 -10.64 510.78 -10.64Q512.28 -10.64 513.49 -9.98Q514.71 -9.31 515.41 -8.07Q516.12 -6.84 516.12 -5.24Q516.12 -3.65 515.39 -2.41Q514.67 -1.18 513.43 -0.5Q512.18 0.17 510.68 0.17Q509.2 0.17 508 -0.5Q506.81 -1.18 506.12 -2.4Q505.44 -3.63 505.44 -5.24ZM513.89 -5.24Q513.89 -6.38 513.46 -7.17Q513.02 -7.96 512.3 -8.36Q511.58 -8.76 510.74 -8.76Q509.9 -8.76 509.19 -8.36Q508.48 -7.96 508.06 -7.17Q507.64 -6.38 507.64 -5.24Q507.64 -3.55 508.51 -2.63Q509.37 -1.71 510.68 -1.71Q511.52 -1.71 512.25 -2.11Q512.98 -2.51 513.44 -3.31Q513.89 -4.1 513.89 -5.24Z M527.74 -10.47V0H525.58V-1.23Q525.07 -0.59 524.24 -0.22Q523.41 0.15 522.48 0.15Q521.25 0.15 520.27 -0.36Q519.29 -0.87 518.73 -1.88Q518.17 -2.89 518.17 -4.31V-10.47H520.32V-4.64Q520.32 -3.23 521.02 -2.48Q521.72 -1.73 522.94 -1.73Q524.15 -1.73 524.87 -2.48Q525.58 -3.23 525.58 -4.64V-10.47Z M541.35 -10.64Q542.72 -10.64 543.85 -9.97Q544.98 -9.29 545.62 -8.07Q546.27 -6.86 546.27 -5.28Q546.27 -3.71 545.62 -2.46Q544.98 -1.22 543.85 -0.52Q542.72 0.17 541.35 0.17Q540.15 0.17 539.22 -0.31Q538.29 -0.8 537.7 -1.52V4.98H535.53V-10.47H537.7V-8.93Q538.25 -9.65 539.2 -10.15Q540.15 -10.64 541.35 -10.64ZM540.87 -8.76Q540.06 -8.76 539.32 -8.34Q538.59 -7.92 538.15 -7.12Q537.7 -6.33 537.7 -5.24Q537.7 -4.16 538.15 -3.35Q538.59 -2.55 539.32 -2.13Q540.06 -1.71 540.87 -1.71Q541.71 -1.71 542.44 -2.14Q543.17 -2.56 543.62 -3.38Q544.07 -4.2 544.07 -5.28Q544.07 -6.37 543.62 -7.15Q543.17 -7.94 542.44 -8.35Q541.71 -8.76 540.87 -8.76Z M552.63 -10.64Q553.87 -10.64 554.79 -10.16Q555.71 -9.67 556.26 -8.95V-10.47H558.45V0H556.26V-1.56Q555.71 -0.82 554.76 -0.32Q553.81 0.17 552.6 0.17Q551.25 0.17 550.13 -0.52Q549.01 -1.22 548.35 -2.46Q547.69 -3.71 547.69 -5.28Q547.69 -6.86 548.35 -8.07Q549.01 -9.29 550.14 -9.97Q551.27 -10.64 552.63 -10.64ZM553.09 -8.76Q552.25 -8.76 551.53 -8.35Q550.81 -7.94 550.36 -7.15Q549.92 -6.37 549.92 -5.28Q549.92 -4.2 550.36 -3.38Q550.81 -2.56 551.54 -2.14Q552.27 -1.71 553.09 -1.71Q553.93 -1.71 554.65 -2.13Q555.37 -2.55 555.82 -3.35Q556.26 -4.16 556.26 -5.24Q556.26 -6.33 555.82 -7.12Q555.37 -7.92 554.65 -8.34Q553.93 -8.76 553.09 -8.76Z M566.6 -10.64V-8.4H566.05Q564.78 -8.4 564.12 -7.75Q563.46 -7.11 563.46 -5.51V0H561.3V-10.47H563.46V-8.95Q563.94 -9.75 564.73 -10.19Q565.52 -10.64 566.6 -10.64Z M571.12 -8.7V-2.91Q571.12 -2.32 571.4 -2.06Q571.67 -1.8 572.34 -1.8H573.67V0H571.96Q570.49 0 569.72 -0.68Q568.94 -1.37 568.94 -2.91V-8.7H567.7V-10.47H568.94V-13.07H571.12V-10.47H573.67V-8.7Z M575.38 -13.24Q575.38 -13.83 575.78 -14.23Q576.18 -14.63 576.76 -14.63Q577.33 -14.63 577.73 -14.23Q578.13 -13.83 578.13 -13.24Q578.13 -12.65 577.73 -12.25Q577.33 -11.86 576.76 -11.86Q576.18 -11.86 575.78 -12.25Q575.38 -12.65 575.38 -13.24ZM577.83 -10.47V0H575.66V-10.47Z M584.92 -10.64Q585.94 -10.64 586.94 -10.19Q587.94 -9.75 588.53 -9.01V-14.06H590.71V0H588.53V-1.58Q587.99 -0.82 587.05 -0.32Q586.11 0.17 584.9 0.17Q583.53 0.17 582.4 -0.52Q581.27 -1.22 580.61 -2.46Q579.96 -3.71 579.96 -5.28Q579.96 -6.86 580.61 -8.07Q581.27 -9.29 582.4 -9.97Q583.53 -10.64 584.92 -10.64ZM585.35 -8.76Q584.52 -8.76 583.79 -8.35Q583.07 -7.94 582.63 -7.15Q582.18 -6.37 582.18 -5.28Q582.18 -4.2 582.63 -3.38Q583.07 -2.56 583.8 -2.14Q584.54 -1.71 585.35 -1.71Q586.19 -1.71 586.91 -2.13Q587.63 -2.55 588.08 -3.35Q588.53 -4.16 588.53 -5.24Q588.53 -6.33 588.08 -7.12Q587.63 -7.92 586.91 -8.34Q586.19 -8.76 585.35 -8.76Z M592.86 -5.24Q592.86 -6.84 593.56 -8.07Q594.26 -9.31 595.48 -9.98Q596.69 -10.64 598.2 -10.64Q599.7 -10.64 600.91 -9.98Q602.13 -9.31 602.83 -8.07Q603.53 -6.84 603.53 -5.24Q603.53 -3.65 602.81 -2.41Q602.09 -1.18 600.85 -0.5Q599.6 0.17 598.1 0.17Q596.62 0.17 595.42 -0.5Q594.23 -1.18 593.54 -2.4Q592.86 -3.63 592.86 -5.24ZM601.31 -5.24Q601.31 -6.38 600.88 -7.17Q600.44 -7.96 599.72 -8.36Q598.99 -8.76 598.16 -8.76Q597.32 -8.76 596.61 -8.36Q595.9 -7.96 595.48 -7.17Q595.06 -6.38 595.06 -5.24Q595.06 -3.55 595.93 -2.63Q596.79 -1.71 598.1 -1.71Q598.94 -1.71 599.67 -2.11Q600.4 -2.51 600.86 -3.31Q601.31 -4.1 601.31 -5.24Z M605.11 -3.21H607.35Q607.41 -2.55 607.99 -2.1Q608.57 -1.65 609.44 -1.65Q610.36 -1.65 610.86 -2Q611.36 -2.36 611.36 -2.91Q611.36 -3.5 610.8 -3.78Q610.24 -4.07 609.03 -4.41Q607.85 -4.73 607.11 -5.04Q606.37 -5.34 605.82 -5.97Q605.28 -6.59 605.28 -7.62Q605.28 -8.46 605.78 -9.15Q606.27 -9.84 607.19 -10.24Q608.11 -10.64 609.31 -10.64Q611.1 -10.64 612.19 -9.74Q613.28 -8.83 613.36 -7.28H611.19Q611.13 -7.98 610.62 -8.4Q610.11 -8.82 609.23 -8.82Q608.38 -8.82 607.92 -8.49Q607.47 -8.17 607.47 -7.64Q607.47 -7.22 607.77 -6.93Q608.08 -6.65 608.51 -6.49Q608.95 -6.33 609.8 -6.08Q610.94 -5.78 611.68 -5.46Q612.41 -5.15 612.94 -4.54Q613.47 -3.93 613.49 -2.93Q613.49 -2.03 613 -1.33Q612.5 -0.63 611.6 -0.23Q610.7 0.17 609.48 0.17Q608.25 0.17 607.27 -0.28Q606.29 -0.72 605.72 -1.49Q605.15 -2.26 605.11 -3.21Z" fill="#94A3B8"/></g></svg>
