<svg xmlns="http://www.w3.org/2000/svg" width="512" height="512" viewBox="0 0 512 512" role="img" aria-labelledby="t d"><title id="t">SaibaTudo Química</title><desc id="d">Ícone do app: frasco de laboratório com líquido verde e bolhas douradas</desc><clipPath id="b"><rect width="512" height="512" rx="112"/></clipPath>
<g clip-path="url(#b)"><rect width="512" height="512" fill="#0C2340"/>
<polygon points="0,372 512,196 512,512 0,512" fill="#143A66"/><g transform="translate(256 256) scale(5.5) translate(-54 -54)">
<polygon fill="#FFFFFF" points="44,26 64,26 64,44 79,70 76,79 32,79 29,70 44,44"/>
<polygon fill="#FFFFFF" points="41,21 67,21 67,27 41,27"/>
<polygon fill="#22C55E" points="35.9,58 72.1,58 79,70 76,79 32,79 29,70"/>
<circle fill="#FFB81C" cx="48" cy="68" r="3.4"/>
<circle fill="#FFB81C" cx="58" cy="64" r="2.4"/>
<circle fill="#FFB81C" cx="63.5" cy="72" r="3"/></g></g></svg>
